DBRep_DrawableShape

CASCADE Topology V3, (c) Open Cascade
Locations 1
1
              1              -0               0              -0 
              0               1               0               0 
             -0               0               1              -0 
Curve2ds 54
1 0 0 1 0 
1 0 0 1 0 
1 6 0 0 -1 
1 0 0 0 1 
1 0 -50 1 0 
1 0 0 1 0 
1 0 0 0 -1 
1 0 0 0 1 
1 0 0 0 1 
1 0 0 1 0 
1 0 0 1 0 
1 0 80 1 0 
1 6 0 0 1 
1 0 0 1 0 
1 6 0 0 1 
1 0 50 1 0 
1 6 0 0 -1 
1 80 0 0 1 
2 12 9 1 0 -0 1 1.6000000000000001
1 0 7 1 0 
2 68 9 1 0 -0 1 1.6000000000000001
1 0 7 1 0 
2 12 41 1 0 -0 1 1.6000000000000001
1 0 7 1 0 
2 40 25 1 0 -0 1 4
1 0 7 1 0 
2 68 41 1 0 -0 1 1.6000000000000001
1 0 7 1 0 
1 0 0 0 1 
1 0 50 1 0 
1 0 -50 1 0 
1 0 80 1 0 
1 0 0 0 -1 
1 80 0 0 1 
2 12 9 1 0 -0 1 1.6000000000000001
1 0 1 1 0 
2 68 9 1 0 -0 1 1.6000000000000001
1 0 1 1 0 
2 12 41 1 0 -0 1 1.6000000000000001
1 0 1 1 0 
2 40 25 1 0 -0 1 4
1 0 1 1 0 
2 68 41 1 0 -0 1 1.6000000000000001
1 0 1 1 0 
1 6.2831853071795862 -0 0 1 
1 0 -0 0 1 
1 6.2831853071795862 -0 0 1 
1 0 -0 0 1 
1 6.2831853071795862 -0 0 1 
1 0 -0 0 1 
1 6.2831853071795862 -0 0 1 
1 0 -0 0 1 
1 6.2831853071795862 -0 0 1 
1 0 -0 0 1 
Curves 27
1 -40 -25 0 0 0 1 
1 -40 -25 6 -0 1 0 
1 -40 25 0 0 0 1 
1 -40 -25 0 -0 1 0 
1 -40 -25 0 1 0 -0 
1 40 -25 0 0 0 1 
1 -40 -25 6 1 0 -0 
1 -40 25 6 1 0 -0 
1 40 -25 6 -0 1 0 
2 -28 -16 6 0 0 1 1 0 -0 -0 1 0 1.6000000000000001
2 28 -16 6 0 0 1 1 0 -0 -0 1 0 1.6000000000000001
2 -28 16 6 0 0 1 1 0 -0 -0 1 0 1.6000000000000001
2 0 0 6 0 0 1 1 0 -0 -0 1 0 4
2 28 16 6 0 0 1 1 0 -0 -0 1 0 1.6000000000000001
1 -40 25 0 1 0 -0 
1 40 25 0 0 0 1 
1 40 -25 0 -0 1 0 
2 -28 -16 0 0 0 1 1 0 -0 -0 1 0 1.6000000000000001
2 28 -16 0 0 0 1 1 0 -0 -0 1 0 1.6000000000000001
2 -28 16 0 0 0 1 1 0 -0 -0 1 0 1.6000000000000001
2 0 0 0 0 0 1 1 0 -0 -0 1 0 4
2 28 16 0 0 0 1 1 0 -0 -0 1 0 1.6000000000000001
1 -26.399999999999999 -16 -1 0 0 1 
1 29.600000000000001 -16 -1 0 0 1 
1 -26.399999999999999 16 -1 0 0 1 
1 4 -9.7971743931788257e-16 -1 0 0 1 
1 29.600000000000001 16 -1 0 0 1 
Polygon3D 0
PolygonOnTriangulations 0
Surfaces 11
1 -40 -25 0 1 0 -0 0 0 1 0 -1 0 
1 -40 -25 0 -0 1 0 0 0 1 1 0 -0 
1 -40 -25 6 0 0 1 1 0 -0 -0 1 0 
1 -40 25 0 -0 1 0 0 0 1 1 0 -0 
1 -40 -25 0 0 0 1 1 0 -0 -0 1 0 
1 40 -25 0 1 0 -0 0 0 1 0 -1 0 
2 -28 -16 -1 0 0 1 1 0 -0 -0 1 0 1.6000000000000001
2 28 -16 -1 0 0 1 1 0 -0 -0 1 0 1.6000000000000001
2 -28 16 -1 0 0 1 1 0 -0 -0 1 0 1.6000000000000001
2 0 0 -1 0 0 1 1 0 -0 -0 1 0 4
2 28 16 -1 0 0 1 1 0 -0 -0 1 0 1.6000000000000001
Triangulations 0

TShapes 80
Ve
1e-07
-40 -25 6
0 0

0101101
*
Ve
1e-07
-40 -25 0
0 0

0101101
*
Ed
 1e-07 1 1 0
1  1 0 0 6
2  1 1 0 0 6
2  2 2 0 0 6
0

0101000
-80 0 +79 0 *
Ve
1e-07
-40 25 6
0 0

0101101
*
Ed
 1e-07 1 1 0
1  2 0 0 50
2  3 1 0 0 50
2  4 3 0 0 50
0

0101000
-77 0 +80 0 *
Ve
1e-07
-40 25 0
0 0

0101101
*
Ed
 1e-07 1 1 0
1  3 0 0 6
2  5 1 0 0 6
2  6 4 0 0 6
0

0101000
-77 0 +75 0 *
Ed
 1e-07 1 1 0
1  4 0 0 50
2  7 1 0 0 50
2  8 5 0 0 50
0

0101000
-75 0 +79 0 *
Wi

0101100
-78 0 -76 0 +74 0 +73 0 *
Fa
0  1e-07 1 0

0111000
+72 0 *
Ve
1e-07
40 -25 0
0 0

0101101
*
Ed
 1e-07 1 1 0
1  5 0 0 80
2  9 2 0 0 80
2  10 5 0 0 80
0

0101000
-70 0 +79 0 *
Ve
1e-07
40 -25 6
0 0

0101101
*
Ed
 1e-07 1 1 0
1  6 0 0 6
2  11 6 0 0 6
2  12 2 0 0 6
0

0101000
-68 0 +70 0 *
Ed
 1e-07 1 1 0
1  7 0 0 80
2  13 2 0 0 80
2  14 3 0 0 80
0

0101000
-68 0 +80 0 *
Wi

0101100
-69 0 -67 0 +66 0 +78 0 *
Fa
0  1e-07 2 0

0111000
+65 0 *
Ve
1e-07
40 25 6
0 0

0101101
*
Ed
 1e-07 1 1 0
1  8 0 0 80
2  15 4 0 0 80
2  16 3 0 0 80
0

0101000
-63 0 +77 0 *
Ed
 1e-07 1 1 0
1  9 0 0 50
2  17 6 0 0 50
2  18 3 0 0 50
0

0101000
-63 0 +68 0 *
Wi

0101100
-76 1 -62 1 +66 1 +61 1 *
Ve
1e-07
-26.4 -16 6
0 0

0101101
*
Ed
 1e-07 1 1 0
1  10 0 0 6.28318530717959
2  19 3 1 0 6.28318530717959
2  20 7 0 0 6.28318530717959
0

0101100
+59 0 -59 0 *
Wi

0101100
-58 0 *
Ve
1e-07
29.6 -16 6
0 0

0101101
*
Ed
 1e-07 1 1 0
1  11 0 0 6.28318530717959
2  21 3 1 0 6.28318530717959
2  22 8 0 0 6.28318530717959
0

0101100
+56 0 -56 0 *
Wi

0101100
-55 0 *
Ve
1e-07
-26.4 16 6
0 0

0101101
*
Ed
 1e-07 1 1 0
1  12 0 0 6.28318530717959
2  23 3 1 0 6.28318530717959
2  24 9 0 0 6.28318530717959
0

0101100
+53 0 -53 0 *
Wi

0101100
-52 0 *
Ve
1.00000000979717e-07
4 -9.79717439317883e-16 6
0 0

0101101
*
Ed
 1e-07 1 1 0
1  13 0 0 6.28318530717959
2  25 3 1 0 6.28318530717959
2  26 10 0 0 6.28318530717959
0

0101100
+50 0 -50 0 *
Wi

0101100
-49 0 *
Ve
1e-07
29.6 16 6
0 0

0101101
*
Ed
 1e-07 1 1 0
1  14 0 0 6.28318530717959
2  27 3 1 0 6.28318530717959
2  28 11 0 0 6.28318530717959
0

0101100
+47 0 -47 0 *
Wi

0101100
-46 0 *
Fa
0  1e-07 3 1

0101000
+60 0 +57 0 +54 0 +51 0 +48 0 +45 0 *
Ve
1e-07
40 25 0
0 0

0101101
*
Ed
 1e-07 1 1 0
1  15 0 0 80
2  29 4 0 0 80
2  30 5 0 0 80
0

0101000
-43 0 +75 0 *
Ed
 1e-07 1 1 0
1  16 0 0 6
2  31 6 0 0 6
2  32 4 0 0 6
0

0101000
-63 0 +43 0 *
Wi

0101100
-42 0 -41 0 +62 0 +74 0 *
Fa
0  1e-07 4 0

0111000
+40 0 *
Ed
 1e-07 1 1 0
1  17 0 0 50
2  33 6 0 0 50
2  34 5 0 0 50
0

0101000
-43 0 +70 0 *
Wi

0101100
-73 1 -42 1 +69 1 +38 1 *
Ve
1e-07
-26.4 -16 0
0 0

0101101
*
Ed
 1e-07 1 1 0
1  18 0 0 6.28318530717959
2  35 5 1 0 6.28318530717959
2  36 7 0 0 6.28318530717959
0

0101100
+36 0 -36 0 *
Wi

0101100
-35 0 *
Ve
1e-07
29.6 -16 0
0 0

0101101
*
Ed
 1e-07 1 1 0
1  19 0 0 6.28318530717959
2  37 5 1 0 6.28318530717959
2  38 8 0 0 6.28318530717959
0

0101100
+33 0 -33 0 *
Wi

0101100
-32 0 *
Ve
1e-07
-26.4 16 0
0 0

0101101
*
Ed
 1e-07 1 1 0
1  20 0 0 6.28318530717959
2  39 5 1 0 6.28318530717959
2  40 9 0 0 6.28318530717959
0

0101100
+30 0 -30 0 *
Wi

0101100
-29 0 *
Ve
1.00000000979717e-07
4 -9.79717439317883e-16 0
0 0

0101101
*
Ed
 1e-07 1 1 0
1  21 0 0 6.28318530717959
2  41 5 1 0 6.28318530717959
2  42 10 0 0 6.28318530717959
0

0101100
+27 0 -27 0 *
Wi

0101100
-26 0 *
Ve
1e-07
29.6 16 0
0 0

0101101
*
Ed
 1e-07 1 1 0
1  22 0 0 6.28318530717959
2  43 5 1 0 6.28318530717959
2  44 11 0 0 6.28318530717959
0

0101100
+24 0 -24 0 *
Wi

0101100
-23 0 *
Fa
0  1e-07 5 1

0101000
+37 0 +34 0 +31 0 +28 0 +25 0 +22 0 *
Wi

0101100
-67 0 -61 0 +41 0 +38 0 *
Fa
0  1e-07 6 0

0111000
+20 0 *
Ed
 1e-07 1 1 0
1  23 0 1 7
3  45 46CN 7 0 1 7
0

0101000
+36 0 -59 0 *
Wi

0101100
-58 0 +18 0 +35 0 -18 0 *
Fa
0  1e-07 7 0

0101000
+17 0 *
Ed
 1e-07 1 1 0
1  24 0 1 7
3  47 48CN 8 0 1 7
0

0101000
+33 0 -56 0 *
Wi

0101100
-55 0 +15 0 +32 0 -15 0 *
Fa
0  1e-07 8 0

0101000
+14 0 *
Ed
 1e-07 1 1 0
1  25 0 1 7
3  49 50CN 9 0 1 7
0

0101000
+30 0 -53 0 *
Wi

0101100
-52 0 +12 0 +29 0 -12 0 *
Fa
0  1e-07 9 0

0101000
+11 0 *
Ed
 1e-07 1 1 0
1  26 0 1 7
3  51 52CN 10 0 1 7
0

0101000
+27 0 -50 0 *
Wi

0101100
-49 0 +9 0 +26 0 -9 0 *
Fa
0  1e-07 10 0

0101000
+8 0 *
Ed
 1e-07 1 1 0
1  27 0 1 7
3  53 54CN 11 0 1 7
0

0101000
+24 0 -47 0 *
Wi

0101100
-46 0 +6 0 +23 0 -6 0 *
Fa
0  1e-07 11 0

0101000
+5 0 *
Sh

0101100
-71 1 -64 1 +44 0 +39 1 -21 0 +19 1 -16 0 -13 0 -10 0 -7 0 
-4 0 *
So

0100000
+3 0 *
Co

1100000
+2 0 *

+1 0 