DBRep_DrawableShape

CASCADE Topology V3, (c) Open Cascade
Locations 3
1
              1              -0               0              -0 
              0               1               0               0 
             -0               0               1              -0 
1
              1              -0               0              -0 
              0               1               0               0 
             -0               0               1              -0 
2  2 -1 0
Curve2ds 110
1 0 0 1 0 
1 0 0 1 0 
1 6 0 0 -1 
1 0 0 0 1 
1 0 -50 1 0 
1 0 0 1 0 
1 0 0 0 -1 
1 0 0 0 1 
1 0 0 0 1 
1 0 0 1 0 
1 0 0 1 0 
1 0 80 1 0 
1 6 0 0 1 
1 0 0 1 0 
1 6 0 0 1 
1 0 50 1 0 
1 6 0 0 -1 
1 80 0 0 1 
2 12 9 1 0 -0 1 1.6000000000000001
1 0 7 1 0 
2 68 9 1 0 -0 1 1.6000000000000001
1 0 7 1 0 
2 12 41 1 0 -0 1 1.6000000000000001
1 0 7 1 0 
2 40 25 1 0 -0 1 4
1 0 7 1 0 
2 68 41 1 0 -0 1 1.6000000000000001
1 0 7 1 0 
1 0 0 0 1 
1 0 50 1 0 
1 0 -50 1 0 
1 0 80 1 0 
1 0 0 0 -1 
1 80 0 0 1 
2 12 9 1 0 -0 1 1.6000000000000001
1 0 1 1 0 
2 68 9 1 0 -0 1 1.6000000000000001
1 0 1 1 0 
2 12 41 1 0 -0 1 1.6000000000000001
1 0 1 1 0 
2 40 25 1 0 -0 1 4
1 0 1 1 0 
2 68 41 1 0 -0 1 1.6000000000000001
1 0 1 1 0 
1 6.2831853071795862 -0 0 1 
1 0 -0 0 1 
1 6.2831853071795862 -0 0 1 
1 0 -0 0 1 
1 6.2831853071795862 -0 0 1 
1 0 -0 0 1 
1 6.2831853071795862 -0 0 1 
1 0 -0 0 1 
1 0 4.5 1 0 
2 5 0.5 1 0 -0 1 4
8 3.3999999999999999 4.5999999999999996
1 6.1578574760115208 0 0 1 
8 3.3999999999999999 4.5999999999999996
1 -3.5 8.9686269665968865 1 0 
1 0 3.5 1 0 
2 5 0.5 1 0 -0 1 4
1 0 3.5 1 0 
2 5 0.5 1 0 -0 1 4
8 3.3999999999999999 4.5999999999999996
1 0.1253278311680654 0 0 1 
8 3.3999999999999999 4.5999999999999996
1 -3.5 8.9686269665968865 1 0 
1 0 4.5 1 0 
2 5 0.5 1 0 -0 1 4
8 3.3999999999999999 4.5999999999999996
1 3.2669204847578586 0 0 1 
8 3.3999999999999999 4.5999999999999996
1 -3.5 1.0313730334031139 1 0 
1 0 4.5 1 0 
2 5 0.5 1 0 -0 1 4
8 3.3999999999999999 4.5999999999999996
1 3.0162648224217277 0 0 1 
8 3.3999999999999999 4.5999999999999996
1 -3.5 1.0313730334031139 1 0 
1 0 3.5 1 0 
2 5 0.5 1 0 -0 1 4
1 6.2831853071795862 -0 0 1 
1 0 -0 0 1 
1 1 0 0 1 
1 0 1 1 0 
1 1 0 0 1 
1 0 0 1 0 
1 0 0 0 1 
1 0 0 1 0 
1 0 0 0 1 
1 0 1 1 0 
1 0 7 1 0 
1 0 7 1 0 
1 0 7 1 0 
1 0 7 1 0 
1 0 7 1 0 
1 0 1 1 0 
1 0 1 1 0 
1 0 1 1 0 
1 0 1 1 0 
1 0 1 1 0 
1 6.2831853071795862 -0 0 1 
1 0 -0 0 1 
1 6.2831853071795862 -0 0 1 
1 0 -0 0 1 
1 6.2831853071795862 -0 0 1 
1 0 -0 0 1 
1 6.2831853071795862 -0 0 1 
1 0 -0 0 1 
1 6.2831853071795862 -0 0 1 
1 0 -0 0 1 
1 0 12 1 0 
1 6.2831853071795862 -0 0 1 
1 0 -0 0 1 
1 0 0 1 0 
1 0 13 1 0 
1 0 1 1 0 
1 6.2831853071795862 -0 0 1 
1 0 -0 0 1 
Curves 74
1 -40 -25 0 0 0 1 
1 -40 -25 6 -0 1 0 
1 -40 25 0 0 0 1 
1 -40 -25 0 -0 1 0 
1 -40 -25 0 1 0 -0 
1 40 -25 0 0 0 1 
1 -40 -25 6 1 0 -0 
1 -40 25 6 1 0 -0 
1 40 -25 6 -0 1 0 
2 -28 -16 6 0 0 1 1 0 -0 -0 1 0 1.6000000000000001
2 28 -16 6 0 0 1 1 0 -0 -0 1 0 1.6000000000000001
2 -28 16 6 0 0 1 1 0 -0 -0 1 0 1.6000000000000001
2 0 0 6 0 0 1 1 0 -0 -0 1 0 4
2 28 16 6 0 0 1 1 0 -0 -0 1 0 1.6000000000000001
1 -40 25 0 1 0 -0 
1 40 25 0 0 0 1 
1 40 -25 0 -0 1 0 
2 -28 -16 0 0 0 1 1 0 -0 -0 1 0 1.6000000000000001
2 28 -16 0 0 0 1 1 0 -0 -0 1 0 1.6000000000000001
2 -28 16 0 0 0 1 1 0 -0 -0 1 0 1.6000000000000001
2 0 0 0 0 0 1 1 0 -0 -0 1 0 4
2 28 16 0 0 0 1 1 0 -0 -0 1 0 1.6000000000000001
1 -26.399999999999999 -16 -1 0 0 1 
1 29.600000000000001 -16 -1 0 0 1 
1 -26.399999999999999 16 -1 0 0 1 
1 4 -9.7971743931788257e-16 -1 0 0 1 
2 0 0 3.5 0 0 1 1 0 -0 -0 1 0 4
1 3.9686269665968861 -0.5 -1 0 0 1 
2 0 0 2.5 0 0 1 1 0 -0 -0 1 0 4
2 0 0 2.5 0 0 1 1 0 -0 -0 1 0 4
1 3.9686269665968861 0.5 -1 0 0 1 
2 0 0 3.5 0 0 1 1 0 -0 -0 1 0 4
1 -3.9686269665968861 -0.5 -1 0 0 1 
2 0 0 3.5 0 0 1 1 0 -0 -0 1 0 4
1 -3.9686269665968861 0.5 -1 0 0 1 
2 0 0 2.5 0 0 1 1 0 -0 -0 1 0 4
1 29.600000000000001 16 -1 0 0 1 
1 -5 0.5 3.5 1 0 -0 
1 -5 -0.5 3.5 1 0 -0 
1 -5 -0.5 2.5 1 0 -0 
1 -5 0.5 2.5 1 0 -0 
1 -40 -25 18 0 0 1 
1 -40 -25 24 0 1 0 
1 -40 25 18 0 0 1 
1 -40 -25 18 0 1 0 
1 -40 -25 18 1 0 0 
1 40 -25 18 0 0 1 
1 -40 -25 24 1 0 0 
1 -40 25 24 1 0 0 
1 40 -25 24 0 1 0 
2 -28 -16 24 0 0 1 1 0 -0 -0 1 0 1.6000000000000001
2 28 -16 24 0 0 1 1 0 -0 -0 1 0 1.6000000000000001
2 -28 16 24 0 0 1 1 0 -0 -0 1 0 1.6000000000000001
2 0 0 24 0 0 1 1 0 -0 -0 1 0 4
2 28 16 24 0 0 1 1 0 -0 -0 1 0 1.6000000000000001
1 -40 25 18 1 0 0 
1 40 25 18 0 0 1 
1 40 -25 18 0 1 0 
2 -28 -16 18 0 0 1 1 0 -0 -0 1 0 1.6000000000000001
2 28 -16 18 0 0 1 1 0 -0 -0 1 0 1.6000000000000001
2 -28 16 18 0 0 1 1 0 -0 -0 1 0 1.6000000000000001
2 0 0 18 0 0 1 1 0 -0 -0 1 0 4
2 28 16 18 0 0 1 1 0 -0 -0 1 0 1.6000000000000001
1 -26.399999999999999 -16 17 0 0 1 
1 29.600000000000001 -16 17 0 0 1 
1 -26.399999999999999 16 17 0 0 1 
1 4 -9.7971743931788257e-16 17 0 0 1 
1 29.600000000000001 16 17 0 0 1 
2 0 0 18 0 0 1 1 0 -0 -0 1 0 9
1 9 -2.2043642384652358e-15 6 0 0 1 
2 0 0 6 0 0 1 1 0 -0 -0 1 0 9
2 0 0 18 0 0 1 1 0 -0 -0 1 0 4
2 0 0 6 0 0 1 1 0 -0 -0 1 0 4
1 4 -9.7971743931788257e-16 5 0 0 1 
Polygon3D 0
PolygonOnTriangulations 0
Surfaces 30
1 -40 -25 0 1 0 -0 0 0 1 0 -1 0 
1 -40 -25 0 -0 1 0 0 0 1 1 0 -0 
1 -40 -25 6 0 0 1 1 0 -0 -0 1 0 
1 -40 25 0 -0 1 0 0 0 1 1 0 -0 
1 -40 -25 0 0 0 1 1 0 -0 -0 1 0 
1 40 -25 0 1 0 -0 0 0 1 0 -1 0 
2 -28 -16 -1 0 0 1 1 0 -0 -0 1 0 1.6000000000000001
2 28 -16 -1 0 0 1 1 0 -0 -0 1 0 1.6000000000000001
2 -28 16 -1 0 0 1 1 0 -0 -0 1 0 1.6000000000000001
2 0 0 -1 0 0 1 1 0 -0 -0 1 0 4
2 28 16 -1 0 0 1 1 0 -0 -0 1 0 1.6000000000000001
1 -5 -0.5 3.5 0 0 1 1 0 -0 -0 1 0 
1 -5 -0.5 2.5 -0 1 0 0 0 1 1 0 -0 
1 -5 -0.5 2.5 0 0 1 1 0 -0 -0 1 0 
1 -5 0.5 2.5 -0 1 0 0 0 1 1 0 -0 
1 -40 -25 18 1 0 0 0 0 1 0 -1 0 
1 -40 -25 18 0 1 0 0 0 1 1 0 0 
1 -40 -25 24 0 0 1 1 0 0 0 1 0 
2 -28 -16 17 0 0 1 1 0 -0 -0 1 0 1.6000000000000001
2 28 -16 17 0 0 1 1 0 -0 -0 1 0 1.6000000000000001
2 -28 16 17 0 0 1 1 0 -0 -0 1 0 1.6000000000000001
2 0 0 17 0 0 1 1 0 -0 -0 1 0 4
2 28 16 17 0 0 1 1 0 -0 -0 1 0 1.6000000000000001
1 -40 25 18 0 1 0 0 0 1 1 0 0 
1 -40 -25 18 0 0 1 1 0 0 0 1 0 
1 40 -25 18 1 0 0 0 0 1 0 -1 0 
2 0 0 6 0 0 1 1 0 -0 -0 1 0 9
1 0 0 18 0 0 1 1 0 -0 -0 1 0 
2 0 0 5 0 0 1 1 0 -0 -0 1 0 4
1 0 0 6 0 0 1 1 0 -0 -0 1 0 
Triangulations 0

TShapes 218
Ve
1e-07
-40 -25 6
0 0

0101101
*
Ve
1e-07
-40 -25 0
0 0

0101101
*
Ed
 1e-07 1 1 0
1  1 0 0 6
2  1 1 0 0 6
2  2 2 0 0 6
0

0101000
-218 0 +217 0 *
Ve
1e-07
-40 25 6
0 0

0101101
*
Ed
 1e-07 1 1 0
1  2 0 0 50
2  3 1 0 0 50
2  4 3 0 0 50
0

0101000
-215 0 +218 0 *
Ve
1e-07
-40 25 0
0 0

0101101
*
Ed
 1e-07 1 1 0
1  3 0 0 6
2  5 1 0 0 6
2  6 4 0 0 6
0

0101000
-215 0 +213 0 *
Ed
 1e-07 1 1 0
1  4 0 0 50
2  7 1 0 0 50
2  8 5 0 0 50
0

0101000
-213 0 +217 0 *
Wi

0101100
-216 0 -214 0 +212 0 +211 0 *
Fa
0  1e-07 1 0

0111000
+210 0 *
Ve
1e-07
40 -25 0
0 0

0101101
*
Ed
 1e-07 1 1 0
1  5 0 0 80
2  9 2 0 0 80
2  10 5 0 0 80
0

0101000
-208 0 +217 0 *
Ve
1e-07
40 -25 6
0 0

0101101
*
Ed
 1e-07 1 1 0
1  6 0 0 6
2  11 6 0 0 6
2  12 2 0 0 6
0

0101000
-206 0 +208 0 *
Ed
 1e-07 1 1 0
1  7 0 0 80
2  13 2 0 0 80
2  14 3 0 0 80
0

0101000
-206 0 +218 0 *
Wi

0101100
-207 0 -205 0 +204 0 +216 0 *
Fa
0  1e-07 2 0

0111000
+203 0 *
Ve
1e-07
40 25 6
0 0

0101101
*
Ed
 1e-07 1 1 0
1  8 0 0 80
2  15 4 0 0 80
2  16 3 0 0 80
0

0101000
-201 0 +215 0 *
Ed
 1e-07 1 1 0
1  9 0 0 50
2  17 6 0 0 50
2  18 3 0 0 50
0

0101000
-201 0 +206 0 *
Wi

0101100
-214 1 -200 1 +204 1 +199 1 *
Ve
1e-07
-26.4 -16 6
0 0

0101101
*
Ed
 1e-07 1 1 0
1  10 0 0 6.28318530717959
2  19 3 1 0 6.28318530717959
2  20 7 0 0 6.28318530717959
0

0101100
+197 0 -197 0 *
Wi

0101100
-196 0 *
Ve
1e-07
29.6 -16 6
0 0

0101101
*
Ed
 1e-07 1 1 0
1  11 0 0 6.28318530717959
2  21 3 1 0 6.28318530717959
2  22 8 0 0 6.28318530717959
0

0101100
+194 0 -194 0 *
Wi

0101100
-193 0 *
Ve
1e-07
-26.4 16 6
0 0

0101101
*
Ed
 1e-07 1 1 0
1  12 0 0 6.28318530717959
2  23 3 1 0 6.28318530717959
2  24 9 0 0 6.28318530717959
0

0101100
+191 0 -191 0 *
Wi

0101100
-190 0 *
Ve
1.00000000979717e-07
4 -9.79717439317883e-16 6
0 0

0101101
*
Ed
 1e-07 1 1 0
1  13 0 0 6.28318530717959
2  25 3 1 0 6.28318530717959
2  26 10 0 0 6.28318530717959
0

0101100
+188 0 -188 0 *
Wi

0101100
-187 0 *
Ve
1e-07
29.6 16 6
0 0

0101101
*
Ed
 1e-07 1 1 0
1  14 0 0 6.28318530717959
2  27 3 1 0 6.28318530717959
2  28 11 0 0 6.28318530717959
0

0101100
+185 0 -185 0 *
Wi

0101100
-184 0 *
Fa
0  1e-07 3 1

0101000
+198 0 +195 0 +192 0 +189 0 +186 0 +183 0 *
Ve
1e-07
40 25 0
0 0

0101101
*
Ed
 1e-07 1 1 0
1  15 0 0 80
2  29 4 0 0 80
2  30 5 0 0 80
0

0101000
-181 0 +213 0 *
Ed
 1e-07 1 1 0
1  16 0 0 6
2  31 6 0 0 6
2  32 4 0 0 6
0

0101000
-201 0 +181 0 *
Wi

0101100
-180 0 -179 0 +200 0 +212 0 *
Fa
0  1e-07 4 0

0111000
+178 0 *
Ed
 1e-07 1 1 0
1  17 0 0 50
2  33 6 0 0 50
2  34 5 0 0 50
0

0101000
-181 0 +208 0 *
Wi

0101100
-211 1 -180 1 +207 1 +176 1 *
Ve
1e-07
-26.4 -16 0
0 0

0101101
*
Ed
 1e-07 1 1 0
1  18 0 0 6.28318530717959
2  35 5 1 0 6.28318530717959
2  36 7 0 0 6.28318530717959
0

0101100
+174 0 -174 0 *
Wi

0101100
-173 0 *
Ve
1e-07
29.6 -16 0
0 0

0101101
*
Ed
 1e-07 1 1 0
1  19 0 0 6.28318530717959
2  37 5 1 0 6.28318530717959
2  38 8 0 0 6.28318530717959
0

0101100
+171 0 -171 0 *
Wi

0101100
-170 0 *
Ve
1e-07
-26.4 16 0
0 0

0101101
*
Ed
 1e-07 1 1 0
1  20 0 0 6.28318530717959
2  39 5 1 0 6.28318530717959
2  40 9 0 0 6.28318530717959
0

0101100
+168 0 -168 0 *
Wi

0101100
-167 0 *
Ve
1.00000000979717e-07
4 -9.79717439317883e-16 0
0 0

0101101
*
Ed
 1e-07 1 1 0
1  21 0 0 6.28318530717959
2  41 5 1 0 6.28318530717959
2  42 10 0 0 6.28318530717959
0

0101100
+165 0 -165 0 *
Wi

0101100
-164 0 *
Ve
1e-07
29.6 16 0
0 0

0101101
*
Ed
 1e-07 1 1 0
1  22 0 0 6.28318530717959
2  43 5 1 0 6.28318530717959
2  44 11 0 0 6.28318530717959
0

0101100
+162 0 -162 0 *
Wi

0101100
-161 0 *
Fa
0  1e-07 5 1

0101000
+175 0 +172 0 +169 0 +166 0 +163 0 +160 0 *
Wi

0101100
-205 0 -199 0 +179 0 +176 0 *
Fa
0  1e-07 6 0

0111000
+158 0 *
Ed
 1e-07 1 1 0
1  23 0 1 7
3  45 46CN 7 0 1 7
0

0101000
+174 0 -197 0 *
Wi

0101100
-196 0 +156 0 +173 0 -156 0 *
Fa
0  1e-07 7 0

0101000
+155 0 *
Ed
 1e-07 1 1 0
1  24 0 1 7
3  47 48CN 8 0 1 7
0

0101000
+171 0 -194 0 *
Wi

0101100
-193 0 +153 0 +170 0 -153 0 *
Fa
0  1e-07 8 0

0101000
+152 0 *
Ed
 1e-07 1 1 0
1  25 0 1 7
3  49 50CN 9 0 1 7
0

0101000
+168 0 -191 0 *
Wi

0101100
-190 0 +150 0 +167 0 -150 0 *
Fa
0  1e-07 9 0

0101000
+149 0 *
Ve
1.00000000979717e-07
4 -9.79717439317883e-16 3.5
0 0

0101101
*
Ed
 1e-07 1 1 0
1  26 0 4.5 7
3  51 52CN 10 0 4.5 7
0

0101000
+147 0 -188 0 *
Ve
1.00000001510067e-07
3.96862696659689 -0.5 3.5
0 0

0101101
*
Ed
 1e-07 1 1 0
1  27 0 6.15785747601152 6.28318530717959
2  53 10 0 6.15785747601152 6.28318530717959
2  54 12 0 6.15785747601152 6.28318530717959
0

0101000
+145 0 -147 0 *
Ve
1.00000001510067e-07
3.96862696659689 -0.5 2.5
0 0

0101101
*
Ed
 1e-07 1 1 0
1  28 0 3.5 4.5
2  55 10 0 3.5 4.5
2  56 13 0 3.5 4.5
0

0101000
+143 0 -145 0 *
Ve
1.00000000979717e-07
4 -9.79717439317883e-16 2.5
0 0

0101101
*
Ed
 1e-07 1 1 0
1  29 0 6.15785747601152 6.28318530717959
2  57 10 0 6.15785747601152 6.28318530717959
2  58 14 0 6.15785747601152 6.28318530717959
0

0101000
+143 0 -141 0 *
Ed
 1e-07 1 1 0
1  26 0 1 3.5
3  51 52CN 10 0 1 3.5
0

0101000
+165 0 -141 0 *
Ve
1.00000000457757e-07
3.96862696659689 0.5 2.5
0 0

0101101
*
Ed
 1e-07 1 1 0
1  30 0 0 0.125327831168065
2  59 10 0 0 0.125327831168065
2  60 14 0 0 0.125327831168065
0

0101000
+141 0 -138 0 *
Ve
1.00000000457757e-07
3.96862696659689 0.5 3.5
0 0

0101101
*
Ed
 1e-07 1 1 0
1  31 0 3.5 4.5
2  61 10 0 3.5 4.5
2  62 15 0 3.5 4.5
0

0101000
+138 0 -136 0 *
Ed
 1e-07 1 1 0
1  32 0 0 0.125327831168065
2  63 10 0 0 0.125327831168065
2  64 12 0 0 0.125327831168065
0

0101000
+147 0 -136 0 *
Wi

0101100
+146 0 +144 0 +142 0 -140 0 +139 0 +164 0 -139 0 -137 0 -135 0 +134 0 
-146 0 -187 0 *
Ve
1.00000000523691e-07
-3.96862696659689 -0.5 2.5
0 0

0101101
*
Ve
1.00000000523691e-07
-3.96862696659689 -0.5 3.5
0 0

0101101
*
Ed
 1e-07 1 1 0
1  33 0 3.5 4.5
2  65 10 0 3.5 4.5
2  66 13 0 3.5 4.5
0

0101000
+132 0 -131 0 *
Ve
1.00000000666134e-07
-3.96862696659689 0.5 3.5
0 0

0101101
*
Ed
 1e-07 1 1 0
1  34 0 3.01626482242173 3.26692048475786
2  67 10 0 3.01626482242173 3.26692048475786
2  68 12 0 3.01626482242173 3.26692048475786
0

0101000
+129 0 -131 0 *
Ve
1.00000000666134e-07
-3.96862696659689 0.5 2.5
0 0

0101101
*
Ed
 1e-07 1 1 0
1  35 0 3.5 4.5
2  69 10 0 3.5 4.5
2  70 15 0 3.5 4.5
0

0101000
+127 0 -129 0 *
Ed
 1e-07 1 1 0
1  36 0 3.01626482242173 3.26692048475786
2  71 10 0 3.01626482242173 3.26692048475786
2  72 14 0 3.01626482242173 3.26692048475786
0

0101000
+127 0 -132 0 *
Wi

0101100
-130 0 +128 0 +126 0 -125 0 *
Fa
0  1e-07 10 0

0101000
+133 0 +124 0 *
Ed
 1e-07 1 1 0
1  37 0 1 7
3  73 74CN 11 0 1 7
0

0101000
+162 0 -185 0 *
Wi

0101100
-184 0 +122 0 +161 0 -122 0 *
Fa
0  1e-07 11 0

0101000
+121 0 *
Ed
 1e-07 1 1 0
1  38 0 1.03137303340311 8.96862696659689
2  75 15 0 1.03137303340311 8.96862696659689
2  76 12 0 1.03137303340311 8.96862696659689
0

0101000
+129 0 -136 0 *
Ed
 1e-07 1 1 0
1  39 0 1.03137303340311 8.96862696659689
2  77 13 0 1.03137303340311 8.96862696659689
2  78 12 0 1.03137303340311 8.96862696659689
0

0101000
+131 0 -145 0 *
Wi

0101100
-119 0 +134 0 +144 0 +118 0 +128 0 *
Fa
0  1e-07 12 0

0101000
+117 0 *
Ed
 1e-07 1 1 0
1  40 0 1.03137303340311 8.96862696659689
2  79 13 0 1.03137303340311 8.96862696659689
2  80 14 0 1.03137303340311 8.96862696659689
0

0101000
+132 0 -143 0 *
Wi

0101100
-115 0 -142 0 +118 0 +130 0 *
Fa
0  1e-07 13 0

0101000
+114 0 *
Ed
 1e-07 1 1 0
1  41 0 1.03137303340311 8.96862696659689
2  81 15 0 1.03137303340311 8.96862696659689
2  82 14 0 1.03137303340311 8.96862696659689
0

0101000
+127 0 -138 0 *
Wi

0101100
-112 0 +137 0 +140 0 +115 0 +125 0 *
Fa
0  1e-07 14 0

0101000
+111 0 *
Wi

0101100
-112 0 -135 0 +119 0 +126 0 *
Fa
0  1e-07 15 0

0101000
+109 0 *
Sh

0101100
-209 1 -202 1 +182 0 +177 1 -159 0 +157 1 -154 0 -151 0 -148 0 -123 0 
-120 0 +116 0 -113 0 -110 0 +108 0 *
So

0100000
+107 0 *
Co

0100000
+106 0 *
Ve
1e-07
-40 -25 24
0 0

0101101
*
Ve
1e-07
-40 -25 18
0 0

0101101
*
Ed
 1e-07 1 1 0
1  42 0 0 6
0

0101000
-104 3 +103 3 *
Ve
1e-07
-40 25 24
0 0

0101101
*
Ed
 1e-07 1 1 0
1  43 0 0 50
0

0101000
-101 3 +104 3 *
Ve
1e-07
-40 25 18
0 0

0101101
*
Ed
 1e-07 1 1 0
1  44 0 0 6
0

0101000
-101 3 +99 3 *
Ed
 1e-07 1 1 0
1  45 0 0 50
0

0101000
-99 3 +103 3 *
Wi

0101100
-102 0 -100 0 +98 0 +97 0 *
Fa
0  1e-07 16 0

0111000
+96 0 *
Ve
1e-07
40 -25 18
0 0

0101101
*
Ed
 1e-07 1 1 0
1  46 0 0 80
0

0101000
-94 3 +103 3 *
Ve
1e-07
40 -25 24
0 0

0101101
*
Ed
 1e-07 1 1 0
1  47 0 0 6
0

0101000
-92 3 +94 3 *
Ed
 1e-07 1 1 0
1  48 0 0 80
0

0101000
-92 3 +104 3 *
Wi

0101100
-93 0 -91 0 +90 0 +102 0 *
Fa
0  1e-07 17 0

0111000
+89 0 *
Ve
1e-07
40 25 24
0 0

0101101
*
Ed
 1e-07 1 1 0
1  49 0 0 80
0

0101000
-87 3 +101 3 *
Ed
 1e-07 1 1 0
1  50 0 0 50
0

0101000
-87 3 +92 3 *
Wi

0101100
-100 2 -86 2 +90 2 +85 2 *
Ve
1e-07
-26.4 -16 24
0 0

0101101
*
Ed
 1e-07 1 1 0
1  51 0 0 6.28318530717959
2  83 19 0 0 6.28318530717959
0

0101100
+83 0 -83 0 *
Wi

0101100
-82 0 *
Ve
1e-07
29.6 -16 24
0 0

0101101
*
Ed
 1e-07 1 1 0
1  52 0 0 6.28318530717959
2  84 20 0 0 6.28318530717959
0

0101100
+80 0 -80 0 *
Wi

0101100
-79 0 *
Ve
1e-07
-26.4 16 24
0 0

0101101
*
Ed
 1e-07 1 1 0
1  53 0 0 6.28318530717959
2  85 21 0 0 6.28318530717959
0

0101100
+77 0 -77 0 *
Wi

0101100
-76 0 *
Ve
1.00000000979717e-07
4 -9.79717439317883e-16 24
0 0

0101101
*
Ed
 1e-07 1 1 0
1  54 0 0 6.28318530717959
2  86 22 0 0 6.28318530717959
0

0101100
+74 0 -74 0 *
Wi

0101100
-73 0 *
Ve
1e-07
29.6 16 24
0 0

0101101
*
Ed
 1e-07 1 1 0
1  55 0 0 6.28318530717959
2  87 23 0 0 6.28318530717959
0

0101100
+71 0 -71 0 *
Wi

0101100
-70 0 *
Fa
0  1e-07 18 2

0101000
+84 0 +81 0 +78 0 +75 0 +72 0 +69 0 *
Ve
1e-07
40 25 18
0 0

0101101
*
Ed
 1e-07 1 1 0
1  56 0 0 80
0

0101000
-67 3 +99 3 *
Ed
 1e-07 1 1 0
1  57 0 0 6
0

0101000
-87 3 +67 3 *
Wi

0101100
-66 0 -65 0 +86 0 +98 0 *
Fa
0  1e-07 24 0

0111000
+64 0 *
Ed
 1e-07 1 1 0
1  58 0 0 50
0

0101000
-67 3 +94 3 *
Wi

0101100
-97 2 -66 2 +93 2 +62 2 *
Ve
1e-07
-26.4 -16 18
0 0

0101101
*
Ed
 1e-07 1 1 0
1  59 0 0 6.28318530717959
2  88 19 0 0 6.28318530717959
0

0101100
+60 0 -60 0 *
Wi

0101100
-59 0 *
Ve
1e-07
29.6 -16 18
0 0

0101101
*
Ed
 1e-07 1 1 0
1  60 0 0 6.28318530717959
2  89 20 0 0 6.28318530717959
0

0101100
+57 0 -57 0 *
Wi

0101100
-56 0 *
Ve
1e-07
-26.4 16 18
0 0

0101101
*
Ed
 1e-07 1 1 0
1  61 0 0 6.28318530717959
2  90 21 0 0 6.28318530717959
0

0101100
+54 0 -54 0 *
Wi

0101100
-53 0 *
Ve
1.00000000979717e-07
4 -9.79717439317883e-16 18
0 0

0101101
*
Ed
 1e-07 1 1 0
1  62 0 0 6.28318530717959
2  91 22 0 0 6.28318530717959
0

0101100
+51 0 -51 0 *
Wi

0101100
-50 0 *
Ve
1e-07
29.6 16 18
0 0

0101101
*
Ed
 1e-07 1 1 0
1  63 0 0 6.28318530717959
2  92 23 0 0 6.28318530717959
0

0101100
+48 0 -48 0 *
Wi

0101100
-47 0 *
Fa
0  1e-07 25 2

0101000
+61 0 +58 0 +55 0 +52 0 +49 0 +46 0 *
Wi

0101100
-91 0 -85 0 +65 0 +62 0 *
Fa
0  1e-07 26 0

0111000
+44 0 *
Ed
 1e-07 1 1 0
1  64 0 1 7
3  93 94CN 19 0 1 7
0

0101000
+60 0 -83 0 *
Wi

0101100
-82 0 +42 0 +59 0 -42 0 *
Fa
0  1e-07 19 0

0101000
+41 0 *
Ed
 1e-07 1 1 0
1  65 0 1 7
3  95 96CN 20 0 1 7
0

0101000
+57 0 -80 0 *
Wi

0101100
-79 0 +39 0 +56 0 -39 0 *
Fa
0  1e-07 20 0

0101000
+38 0 *
Ed
 1e-07 1 1 0
1  66 0 1 7
3  97 98CN 21 0 1 7
0

0101000
+54 0 -77 0 *
Wi

0101100
-76 0 +36 0 +53 0 -36 0 *
Fa
0  1e-07 21 0

0101000
+35 0 *
Ed
 1e-07 1 1 0
1  67 0 1 7
3  99 100CN 22 0 1 7
0

0101000
+51 0 -74 0 *
Wi

0101100
-73 0 +33 0 +50 0 -33 0 *
Fa
0  1e-07 22 0

0101000
+32 0 *
Ed
 1e-07 1 1 0
1  68 0 1 7
3  101 102CN 23 0 1 7
0

0101000
+48 0 -71 0 *
Wi

0101100
-70 0 +30 0 +47 0 -30 0 *
Fa
0  1e-07 23 0

0101000
+29 0 *
Sh

0101100
-95 2 -88 2 +68 0 +63 2 -45 0 +43 2 -40 0 -37 0 -34 0 -31 0 
-28 0 *
So

0100000
+27 0 *
Co

0100000
+26 0 *
Ve
1e-07
9 -2.20436423846524e-15 18
0 0

0101101
*
Ed
 1e-07 1 1 0
1  69 0 0 6.28318530717959
2  103 27 0 0 6.28318530717959
0

0101000
+24 0 -24 0 *
Ve
1e-07
9 -2.20436423846524e-15 6
0 0

0101101
*
Ed
 1e-07 1 1 0
1  70 0 0 12
3  104 105CN 27 0 0 12
0

0101000
-24 0 +22 0 *
Ed
 1e-07 1 1 0
1  71 0 0 6.28318530717959
2  106 27 0 0 6.28318530717959
0

0101000
+22 0 -22 0 *
Wi

0101100
-23 0 +21 0 +20 0 -21 0 *
Fa
0  1e-07 27 0

0111000
+19 0 *
Wi

0101100
+23 0 *
Ve
1.00000000979717e-07
4 -9.79717439317883e-16 18
0 0

0101101
*
Ed
 1e-07 1 1 0
1  72 0 0 6.28318530717959
2  107 29 0 0 6.28318530717959
0

0101100
+16 0 -16 0 *
Wi

0101100
-15 0 *
Fa
0  1e-07 28 0

0101000
+17 0 +14 0 *
Wi

0101100
+20 0 *
Ve
1.00000000979717e-07
4 -9.79717439317883e-16 6
0 0

0101101
*
Ed
 1e-07 1 1 0
1  73 0 0 6.28318530717959
2  108 29 0 0 6.28318530717959
0

0101100
+11 0 -11 0 *
Wi

0101100
-10 0 *
Fa
0  1e-07 30 0

0101000
+12 0 +9 0 *
Ed
 1e-07 1 1 0
1  74 0 1 13
3  109 110CN 29 0 1 13
0

0101000
+11 0 -16 0 *
Wi

0101100
-15 0 +7 0 +10 0 -7 0 *
Fa
0  1e-07 29 0

0101000
+6 0 *
Sh

0101100
+18 0 +13 0 -8 0 -5 0 *
So

0100000
+4 0 *
Co

0100000
+3 0 *
Co

1100000
+105 0 +25 0 +2 0 *

+1 0 