DBRep_DrawableShape

CASCADE Topology V3, (c) Open Cascade
Locations 3
1
              1              -0               0              -0 
              0               1               0               0 
             -0               0               1              -0 
1
              1              -0               0              -0 
              0               1               0               0 
             -0               0               1              -0 
2  2 -1 0
Curve2ds 82
1 0 0 1 0 
1 0 0 1 0 
1 6 0 0 -1 
1 0 0 0 1 
1 0 -50 1 0 
1 0 0 1 0 
1 0 0 0 -1 
1 0 0 0 1 
1 0 0 0 1 
1 0 0 1 0 
1 0 0 1 0 
1 0 80 1 0 
1 6 0 0 1 
1 0 0 1 0 
1 6 0 0 1 
1 0 50 1 0 
1 6 0 0 -1 
1 80 0 0 1 
2 12 9 1 0 -0 1 1.6000000000000001
1 0 7 1 0 
2 68 9 1 0 -0 1 1.6000000000000001
1 0 7 1 0 
2 12 41 1 0 -0 1 1.6000000000000001
1 0 7 1 0 
2 40 25 1 0 -0 1 4
1 0 7 1 0 
2 68 41 1 0 -0 1 1.6000000000000001
1 0 7 1 0 
1 0 0 0 1 
1 0 50 1 0 
1 0 -50 1 0 
1 0 80 1 0 
1 0 0 0 -1 
1 80 0 0 1 
2 12 9 1 0 -0 1 1.6000000000000001
1 0 1 1 0 
2 68 9 1 0 -0 1 1.6000000000000001
1 0 1 1 0 
2 12 41 1 0 -0 1 1.6000000000000001
1 0 1 1 0 
2 40 25 1 0 -0 1 4
1 0 1 1 0 
2 68 41 1 0 -0 1 1.6000000000000001
1 0 1 1 0 
1 6.2831853071795862 -0 0 1 
1 0 -0 0 1 
1 6.2831853071795862 -0 0 1 
1 0 -0 0 1 
1 6.2831853071795862 -0 0 1 
1 0 -0 0 1 
1 6.2831853071795862 -0 0 1 
1 0 -0 0 1 
1 6.2831853071795862 -0 0 1 
1 0 -0 0 1 
1 0 7 1 0 
1 0 7 1 0 
1 0 7 1 0 
1 0 7 1 0 
1 0 7 1 0 
1 0 1 1 0 
1 0 1 1 0 
1 0 1 1 0 
1 0 1 1 0 
1 0 1 1 0 
1 6.2831853071795862 -0 0 1 
1 0 -0 0 1 
1 6.2831853071795862 -0 0 1 
1 0 -0 0 1 
1 6.2831853071795862 -0 0 1 
1 0 -0 0 1 
1 6.2831853071795862 -0 0 1 
1 0 -0 0 1 
1 6.2831853071795862 -0 0 1 
1 0 -0 0 1 
1 0 12 1 0 
1 6.2831853071795862 -0 0 1 
1 0 -0 0 1 
1 0 0 1 0 
1 0 13 1 0 
1 0 1 1 0 
1 6.2831853071795862 -0 0 1 
1 0 -0 0 1 
Curves 60
1 -40 -25 0 0 0 1 
1 -40 -25 6 -0 1 0 
1 -40 25 0 0 0 1 
1 -40 -25 0 -0 1 0 
1 -40 -25 0 1 0 -0 
1 40 -25 0 0 0 1 
1 -40 -25 6 1 0 -0 
1 -40 25 6 1 0 -0 
1 40 -25 6 -0 1 0 
2 -28 -16 6 0 0 1 1 0 -0 -0 1 0 1.6000000000000001
2 28 -16 6 0 0 1 1 0 -0 -0 1 0 1.6000000000000001
2 -28 16 6 0 0 1 1 0 -0 -0 1 0 1.6000000000000001
2 0 0 6 0 0 1 1 0 -0 -0 1 0 4
2 28 16 6 0 0 1 1 0 -0 -0 1 0 1.6000000000000001
1 -40 25 0 1 0 -0 
1 40 25 0 0 0 1 
1 40 -25 0 -0 1 0 
2 -28 -16 0 0 0 1 1 0 -0 -0 1 0 1.6000000000000001
2 28 -16 0 0 0 1 1 0 -0 -0 1 0 1.6000000000000001
2 -28 16 0 0 0 1 1 0 -0 -0 1 0 1.6000000000000001
2 0 0 0 0 0 1 1 0 -0 -0 1 0 4
2 28 16 0 0 0 1 1 0 -0 -0 1 0 1.6000000000000001
1 -26.399999999999999 -16 -1 0 0 1 
1 29.600000000000001 -16 -1 0 0 1 
1 -26.399999999999999 16 -1 0 0 1 
1 4 -9.7971743931788257e-16 -1 0 0 1 
1 29.600000000000001 16 -1 0 0 1 
1 -40 -25 18 0 0 1 
1 -40 -25 24 0 1 0 
1 -40 25 18 0 0 1 
1 -40 -25 18 0 1 0 
1 -40 -25 18 1 0 0 
1 40 -25 18 0 0 1 
1 -40 -25 24 1 0 0 
1 -40 25 24 1 0 0 
1 40 -25 24 0 1 0 
2 -28 -16 24 0 0 1 1 0 -0 -0 1 0 1.6000000000000001
2 28 -16 24 0 0 1 1 0 -0 -0 1 0 1.6000000000000001
2 -28 16 24 0 0 1 1 0 -0 -0 1 0 1.6000000000000001
2 0 0 24 0 0 1 1 0 -0 -0 1 0 4
2 28 16 24 0 0 1 1 0 -0 -0 1 0 1.6000000000000001
1 -40 25 18 1 0 0 
1 40 25 18 0 0 1 
1 40 -25 18 0 1 0 
2 -28 -16 18 0 0 1 1 0 -0 -0 1 0 1.6000000000000001
2 28 -16 18 0 0 1 1 0 -0 -0 1 0 1.6000000000000001
2 -28 16 18 0 0 1 1 0 -0 -0 1 0 1.6000000000000001
2 0 0 18 0 0 1 1 0 -0 -0 1 0 4
2 28 16 18 0 0 1 1 0 -0 -0 1 0 1.6000000000000001
1 -26.399999999999999 -16 17 0 0 1 
1 29.600000000000001 -16 17 0 0 1 
1 -26.399999999999999 16 17 0 0 1 
1 4 -9.7971743931788257e-16 17 0 0 1 
1 29.600000000000001 16 17 0 0 1 
2 0 0 18 0 0 1 1 0 -0 -0 1 0 9
1 9 -2.2043642384652358e-15 6 0 0 1 
2 0 0 6 0 0 1 1 0 -0 -0 1 0 9
2 0 0 18 0 0 1 1 0 -0 -0 1 0 4
2 0 0 6 0 0 1 1 0 -0 -0 1 0 4
1 4 -9.7971743931788257e-16 5 0 0 1 
Polygon3D 0
PolygonOnTriangulations 0
Surfaces 26
1 -40 -25 0 1 0 -0 0 0 1 0 -1 0 
1 -40 -25 0 -0 1 0 0 0 1 1 0 -0 
1 -40 -25 6 0 0 1 1 0 -0 -0 1 0 
1 -40 25 0 -0 1 0 0 0 1 1 0 -0 
1 -40 -25 0 0 0 1 1 0 -0 -0 1 0 
1 40 -25 0 1 0 -0 0 0 1 0 -1 0 
2 -28 -16 -1 0 0 1 1 0 -0 -0 1 0 1.6000000000000001
2 28 -16 -1 0 0 1 1 0 -0 -0 1 0 1.6000000000000001
2 -28 16 -1 0 0 1 1 0 -0 -0 1 0 1.6000000000000001
2 0 0 -1 0 0 1 1 0 -0 -0 1 0 4
2 28 16 -1 0 0 1 1 0 -0 -0 1 0 1.6000000000000001
1 -40 -25 18 1 0 0 0 0 1 0 -1 0 
1 -40 -25 18 0 1 0 0 0 1 1 0 0 
1 -40 -25 24 0 0 1 1 0 0 0 1 0 
2 -28 -16 17 0 0 1 1 0 -0 -0 1 0 1.6000000000000001
2 28 -16 17 0 0 1 1 0 -0 -0 1 0 1.6000000000000001
2 -28 16 17 0 0 1 1 0 -0 -0 1 0 1.6000000000000001
2 0 0 17 0 0 1 1 0 -0 -0 1 0 4
2 28 16 17 0 0 1 1 0 -0 -0 1 0 1.6000000000000001
1 -40 25 18 0 1 0 0 0 1 1 0 0 
1 -40 -25 18 0 0 1 1 0 0 0 1 0 
1 40 -25 18 1 0 0 0 0 1 0 -1 0 
2 0 0 6 0 0 1 1 0 -0 -0 1 0 9
1 0 0 18 0 0 1 1 0 -0 -0 1 0 
2 0 0 5 0 0 1 1 0 -0 -0 1 0 4
1 0 0 6 0 0 1 1 0 -0 -0 1 0 
Triangulations 0

TShapes 184
Ve
1e-07
-40 -25 6
0 0

0101101
*
Ve
1e-07
-40 -25 0
0 0

0101101
*
Ed
 1e-07 1 1 0
1  1 0 0 6
2  1 1 0 0 6
2  2 2 0 0 6
0

0101000
-184 0 +183 0 *
Ve
1e-07
-40 25 6
0 0

0101101
*
Ed
 1e-07 1 1 0
1  2 0 0 50
2  3 1 0 0 50
2  4 3 0 0 50
0

0101000
-181 0 +184 0 *
Ve
1e-07
-40 25 0
0 0

0101101
*
Ed
 1e-07 1 1 0
1  3 0 0 6
2  5 1 0 0 6
2  6 4 0 0 6
0

0101000
-181 0 +179 0 *
Ed
 1e-07 1 1 0
1  4 0 0 50
2  7 1 0 0 50
2  8 5 0 0 50
0

0101000
-179 0 +183 0 *
Wi

0101100
-182 0 -180 0 +178 0 +177 0 *
Fa
0  1e-07 1 0

0111000
+176 0 *
Ve
1e-07
40 -25 0
0 0

0101101
*
Ed
 1e-07 1 1 0
1  5 0 0 80
2  9 2 0 0 80
2  10 5 0 0 80
0

0101000
-174 0 +183 0 *
Ve
1e-07
40 -25 6
0 0

0101101
*
Ed
 1e-07 1 1 0
1  6 0 0 6
2  11 6 0 0 6
2  12 2 0 0 6
0

0101000
-172 0 +174 0 *
Ed
 1e-07 1 1 0
1  7 0 0 80
2  13 2 0 0 80
2  14 3 0 0 80
0

0101000
-172 0 +184 0 *
Wi

0101100
-173 0 -171 0 +170 0 +182 0 *
Fa
0  1e-07 2 0

0111000
+169 0 *
Ve
1e-07
40 25 6
0 0

0101101
*
Ed
 1e-07 1 1 0
1  8 0 0 80
2  15 4 0 0 80
2  16 3 0 0 80
0

0101000
-167 0 +181 0 *
Ed
 1e-07 1 1 0
1  9 0 0 50
2  17 6 0 0 50
2  18 3 0 0 50
0

0101000
-167 0 +172 0 *
Wi

0101100
-180 1 -166 1 +170 1 +165 1 *
Ve
1e-07
-26.4 -16 6
0 0

0101101
*
Ed
 1e-07 1 1 0
1  10 0 0 6.28318530717959
2  19 3 1 0 6.28318530717959
2  20 7 0 0 6.28318530717959
0

0101100
+163 0 -163 0 *
Wi

0101100
-162 0 *
Ve
1e-07
29.6 -16 6
0 0

0101101
*
Ed
 1e-07 1 1 0
1  11 0 0 6.28318530717959
2  21 3 1 0 6.28318530717959
2  22 8 0 0 6.28318530717959
0

0101100
+160 0 -160 0 *
Wi

0101100
-159 0 *
Ve
1e-07
-26.4 16 6
0 0

0101101
*
Ed
 1e-07 1 1 0
1  12 0 0 6.28318530717959
2  23 3 1 0 6.28318530717959
2  24 9 0 0 6.28318530717959
0

0101100
+157 0 -157 0 *
Wi

0101100
-156 0 *
Ve
1.00000000979717e-07
4 -9.79717439317883e-16 6
0 0

0101101
*
Ed
 1e-07 1 1 0
1  13 0 0 6.28318530717959
2  25 3 1 0 6.28318530717959
2  26 10 0 0 6.28318530717959
0

0101100
+154 0 -154 0 *
Wi

0101100
-153 0 *
Ve
1e-07
29.6 16 6
0 0

0101101
*
Ed
 1e-07 1 1 0
1  14 0 0 6.28318530717959
2  27 3 1 0 6.28318530717959
2  28 11 0 0 6.28318530717959
0

0101100
+151 0 -151 0 *
Wi

0101100
-150 0 *
Fa
0  1e-07 3 1

0101000
+164 0 +161 0 +158 0 +155 0 +152 0 +149 0 *
Ve
1e-07
40 25 0
0 0

0101101
*
Ed
 1e-07 1 1 0
1  15 0 0 80
2  29 4 0 0 80
2  30 5 0 0 80
0

0101000
-147 0 +179 0 *
Ed
 1e-07 1 1 0
1  16 0 0 6
2  31 6 0 0 6
2  32 4 0 0 6
0

0101000
-167 0 +147 0 *
Wi

0101100
-146 0 -145 0 +166 0 +178 0 *
Fa
0  1e-07 4 0

0111000
+144 0 *
Ed
 1e-07 1 1 0
1  17 0 0 50
2  33 6 0 0 50
2  34 5 0 0 50
0

0101000
-147 0 +174 0 *
Wi

0101100
-177 1 -146 1 +173 1 +142 1 *
Ve
1e-07
-26.4 -16 0
0 0

0101101
*
Ed
 1e-07 1 1 0
1  18 0 0 6.28318530717959
2  35 5 1 0 6.28318530717959
2  36 7 0 0 6.28318530717959
0

0101100
+140 0 -140 0 *
Wi

0101100
-139 0 *
Ve
1e-07
29.6 -16 0
0 0

0101101
*
Ed
 1e-07 1 1 0
1  19 0 0 6.28318530717959
2  37 5 1 0 6.28318530717959
2  38 8 0 0 6.28318530717959
0

0101100
+137 0 -137 0 *
Wi

0101100
-136 0 *
Ve
1e-07
-26.4 16 0
0 0

0101101
*
Ed
 1e-07 1 1 0
1  20 0 0 6.28318530717959
2  39 5 1 0 6.28318530717959
2  40 9 0 0 6.28318530717959
0

0101100
+134 0 -134 0 *
Wi

0101100
-133 0 *
Ve
1.00000000979717e-07
4 -9.79717439317883e-16 0
0 0

0101101
*
Ed
 1e-07 1 1 0
1  21 0 0 6.28318530717959
2  41 5 1 0 6.28318530717959
2  42 10 0 0 6.28318530717959
0

0101100
+131 0 -131 0 *
Wi

0101100
-130 0 *
Ve
1e-07
29.6 16 0
0 0

0101101
*
Ed
 1e-07 1 1 0
1  22 0 0 6.28318530717959
2  43 5 1 0 6.28318530717959
2  44 11 0 0 6.28318530717959
0

0101100
+128 0 -128 0 *
Wi

0101100
-127 0 *
Fa
0  1e-07 5 1

0101000
+141 0 +138 0 +135 0 +132 0 +129 0 +126 0 *
Wi

0101100
-171 0 -165 0 +145 0 +142 0 *
Fa
0  1e-07 6 0

0111000
+124 0 *
Ed
 1e-07 1 1 0
1  23 0 1 7
3  45 46CN 7 0 1 7
0

0101000
+140 0 -163 0 *
Wi

0101100
-162 0 +122 0 +139 0 -122 0 *
Fa
0  1e-07 7 0

0101000
+121 0 *
Ed
 1e-07 1 1 0
1  24 0 1 7
3  47 48CN 8 0 1 7
0

0101000
+137 0 -160 0 *
Wi

0101100
-159 0 +119 0 +136 0 -119 0 *
Fa
0  1e-07 8 0

0101000
+118 0 *
Ed
 1e-07 1 1 0
1  25 0 1 7
3  49 50CN 9 0 1 7
0

0101000
+134 0 -157 0 *
Wi

0101100
-156 0 +116 0 +133 0 -116 0 *
Fa
0  1e-07 9 0

0101000
+115 0 *
Ed
 1e-07 1 1 0
1  26 0 1 7
3  51 52CN 10 0 1 7
0

0101000
+131 0 -154 0 *
Wi

0101100
-153 0 +113 0 +130 0 -113 0 *
Fa
0  1e-07 10 0

0101000
+112 0 *
Ed
 1e-07 1 1 0
1  27 0 1 7
3  53 54CN 11 0 1 7
0

0101000
+128 0 -151 0 *
Wi

0101100
-150 0 +110 0 +127 0 -110 0 *
Fa
0  1e-07 11 0

0101000
+109 0 *
Sh

0101100
-175 1 -168 1 +148 0 +143 1 -125 0 +123 1 -120 0 -117 0 -114 0 -111 0 
-108 0 *
So

0100000
+107 0 *
Co

0100000
+106 0 *
Ve
1e-07
-40 -25 24
0 0

0101101
*
Ve
1e-07
-40 -25 18
0 0

0101101
*
Ed
 1e-07 1 1 0
1  28 0 0 6
0

0101000
-104 3 +103 3 *
Ve
1e-07
-40 25 24
0 0

0101101
*
Ed
 1e-07 1 1 0
1  29 0 0 50
0

0101000
-101 3 +104 3 *
Ve
1e-07
-40 25 18
0 0

0101101
*
Ed
 1e-07 1 1 0
1  30 0 0 6
0

0101000
-101 3 +99 3 *
Ed
 1e-07 1 1 0
1  31 0 0 50
0

0101000
-99 3 +103 3 *
Wi

0101100
-102 0 -100 0 +98 0 +97 0 *
Fa
0  1e-07 12 0

0111000
+96 0 *
Ve
1e-07
40 -25 18
0 0

0101101
*
Ed
 1e-07 1 1 0
1  32 0 0 80
0

0101000
-94 3 +103 3 *
Ve
1e-07
40 -25 24
0 0

0101101
*
Ed
 1e-07 1 1 0
1  33 0 0 6
0

0101000
-92 3 +94 3 *
Ed
 1e-07 1 1 0
1  34 0 0 80
0

0101000
-92 3 +104 3 *
Wi

0101100
-93 0 -91 0 +90 0 +102 0 *
Fa
0  1e-07 13 0

0111000
+89 0 *
Ve
1e-07
40 25 24
0 0

0101101
*
Ed
 1e-07 1 1 0
1  35 0 0 80
0

0101000
-87 3 +101 3 *
Ed
 1e-07 1 1 0
1  36 0 0 50
0

0101000
-87 3 +92 3 *
Wi

0101100
-100 2 -86 2 +90 2 +85 2 *
Ve
1e-07
-26.4 -16 24
0 0

0101101
*
Ed
 1e-07 1 1 0
1  37 0 0 6.28318530717959
2  55 15 0 0 6.28318530717959
0

0101100
+83 0 -83 0 *
Wi

0101100
-82 0 *
Ve
1e-07
29.6 -16 24
0 0

0101101
*
Ed
 1e-07 1 1 0
1  38 0 0 6.28318530717959
2  56 16 0 0 6.28318530717959
0

0101100
+80 0 -80 0 *
Wi

0101100
-79 0 *
Ve
1e-07
-26.4 16 24
0 0

0101101
*
Ed
 1e-07 1 1 0
1  39 0 0 6.28318530717959
2  57 17 0 0 6.28318530717959
0

0101100
+77 0 -77 0 *
Wi

0101100
-76 0 *
Ve
1.00000000979717e-07
4 -9.79717439317883e-16 24
0 0

0101101
*
Ed
 1e-07 1 1 0
1  40 0 0 6.28318530717959
2  58 18 0 0 6.28318530717959
0

0101100
+74 0 -74 0 *
Wi

0101100
-73 0 *
Ve
1e-07
29.6 16 24
0 0

0101101
*
Ed
 1e-07 1 1 0
1  41 0 0 6.28318530717959
2  59 19 0 0 6.28318530717959
0

0101100
+71 0 -71 0 *
Wi

0101100
-70 0 *
Fa
0  1e-07 14 2

0101000
+84 0 +81 0 +78 0 +75 0 +72 0 +69 0 *
Ve
1e-07
40 25 18
0 0

0101101
*
Ed
 1e-07 1 1 0
1  42 0 0 80
0

0101000
-67 3 +99 3 *
Ed
 1e-07 1 1 0
1  43 0 0 6
0

0101000
-87 3 +67 3 *
Wi

0101100
-66 0 -65 0 +86 0 +98 0 *
Fa
0  1e-07 20 0

0111000
+64 0 *
Ed
 1e-07 1 1 0
1  44 0 0 50
0

0101000
-67 3 +94 3 *
Wi

0101100
-97 2 -66 2 +93 2 +62 2 *
Ve
1e-07
-26.4 -16 18
0 0

0101101
*
Ed
 1e-07 1 1 0
1  45 0 0 6.28318530717959
2  60 15 0 0 6.28318530717959
0

0101100
+60 0 -60 0 *
Wi

0101100
-59 0 *
Ve
1e-07
29.6 -16 18
0 0

0101101
*
Ed
 1e-07 1 1 0
1  46 0 0 6.28318530717959
2  61 16 0 0 6.28318530717959
0

0101100
+57 0 -57 0 *
Wi

0101100
-56 0 *
Ve
1e-07
-26.4 16 18
0 0

0101101
*
Ed
 1e-07 1 1 0
1  47 0 0 6.28318530717959
2  62 17 0 0 6.28318530717959
0

0101100
+54 0 -54 0 *
Wi

0101100
-53 0 *
Ve
1.00000000979717e-07
4 -9.79717439317883e-16 18
0 0

0101101
*
Ed
 1e-07 1 1 0
1  48 0 0 6.28318530717959
2  63 18 0 0 6.28318530717959
0

0101100
+51 0 -51 0 *
Wi

0101100
-50 0 *
Ve
1e-07
29.6 16 18
0 0

0101101
*
Ed
 1e-07 1 1 0
1  49 0 0 6.28318530717959
2  64 19 0 0 6.28318530717959
0

0101100
+48 0 -48 0 *
Wi

0101100
-47 0 *
Fa
0  1e-07 21 2

0101000
+61 0 +58 0 +55 0 +52 0 +49 0 +46 0 *
Wi

0101100
-91 0 -85 0 +65 0 +62 0 *
Fa
0  1e-07 22 0

0111000
+44 0 *
Ed
 1e-07 1 1 0
1  50 0 1 7
3  65 66CN 15 0 1 7
0

0101000
+60 0 -83 0 *
Wi

0101100
-82 0 +42 0 +59 0 -42 0 *
Fa
0  1e-07 15 0

0101000
+41 0 *
Ed
 1e-07 1 1 0
1  51 0 1 7
3  67 68CN 16 0 1 7
0

0101000
+57 0 -80 0 *
Wi

0101100
-79 0 +39 0 +56 0 -39 0 *
Fa
0  1e-07 16 0

0101000
+38 0 *
Ed
 1e-07 1 1 0
1  52 0 1 7
3  69 70CN 17 0 1 7
0

0101000
+54 0 -77 0 *
Wi

0101100
-76 0 +36 0 +53 0 -36 0 *
Fa
0  1e-07 17 0

0101000
+35 0 *
Ed
 1e-07 1 1 0
1  53 0 1 7
3  71 72CN 18 0 1 7
0

0101000
+51 0 -74 0 *
Wi

0101100
-73 0 +33 0 +50 0 -33 0 *
Fa
0  1e-07 18 0

0101000
+32 0 *
Ed
 1e-07 1 1 0
1  54 0 1 7
3  73 74CN 19 0 1 7
0

0101000
+48 0 -71 0 *
Wi

0101100
-70 0 +30 0 +47 0 -30 0 *
Fa
0  1e-07 19 0

0101000
+29 0 *
Sh

0101100
-95 2 -88 2 +68 0 +63 2 -45 0 +43 2 -40 0 -37 0 -34 0 -31 0 
-28 0 *
So

0100000
+27 0 *
Co

0100000
+26 0 *
Ve
1e-07
9 -2.20436423846524e-15 18
0 0

0101101
*
Ed
 1e-07 1 1 0
1  55 0 0 6.28318530717959
2  75 23 0 0 6.28318530717959
0

0101000
+24 0 -24 0 *
Ve
1e-07
9 -2.20436423846524e-15 6
0 0

0101101
*
Ed
 1e-07 1 1 0
1  56 0 0 12
3  76 77CN 23 0 0 12
0

0101000
-24 0 +22 0 *
Ed
 1e-07 1 1 0
1  57 0 0 6.28318530717959
2  78 23 0 0 6.28318530717959
0

0101000
+22 0 -22 0 *
Wi

0101100
-23 0 +21 0 +20 0 -21 0 *
Fa
0  1e-07 23 0

0111000
+19 0 *
Wi

0101100
+23 0 *
Ve
1.00000000979717e-07
4 -9.79717439317883e-16 18
0 0

0101101
*
Ed
 1e-07 1 1 0
1  58 0 0 6.28318530717959
2  79 25 0 0 6.28318530717959
0

0101100
+16 0 -16 0 *
Wi

0101100
-15 0 *
Fa
0  1e-07 24 0

0101000
+17 0 +14 0 *
Wi

0101100
+20 0 *
Ve
1.00000000979717e-07
4 -9.79717439317883e-16 6
0 0

0101101
*
Ed
 1e-07 1 1 0
1  59 0 0 6.28318530717959
2  80 25 0 0 6.28318530717959
0

0101100
+11 0 -11 0 *
Wi

0101100
-10 0 *
Fa
0  1e-07 26 0

0101000
+12 0 +9 0 *
Ed
 1e-07 1 1 0
1  60 0 1 13
3  81 82CN 25 0 1 13
0

0101000
+11 0 -16 0 *
Wi

0101100
-15 0 +7 0 +10 0 -7 0 *
Fa
0  1e-07 25 0

0101000
+6 0 *
Sh

0101100
+18 0 +13 0 -8 0 -5 0 *
So

0100000
+4 0 *
Co

0100000
+3 0 *
Co

1100000
+105 0 +25 0 +2 0 *

+1 0 