DBRep_DrawableShape

CASCADE Topology V3, (c) Open Cascade
Locations 1
1
              1              -0               0              -0 
              0               1               0               0 
             -0               0               1              -0 
Curve2ds 82
1 0 0 1 0 
1 0 0 1 0 
1 6 0 0 -1 
1 0 0 0 1 
1 0 -50 1 0 
1 0 0 1 0 
1 0 0 0 -1 
1 0 0 0 1 
1 0 0 0 1 
1 0 0 1 0 
1 0 0 1 0 
1 0 80 1 0 
1 6 0 0 1 
1 0 0 1 0 
1 6 0 0 1 
1 0 50 1 0 
1 6 0 0 -1 
1 80 0 0 1 
2 12 9 1 0 -0 1 1.6000000000000001
1 0 7 1 0 
2 68 9 1 0 -0 1 1.6000000000000001
1 0 7 1 0 
2 12 41 1 0 -0 1 1.6000000000000001
1 0 7 1 0 
2 40 25 1 0 -0 1 4
1 0 7 1 0 
2 68 41 1 0 -0 1 1.6000000000000001
1 0 7 1 0 
1 0 0 0 1 
1 0 50 1 0 
1 0 -50 1 0 
1 0 80 1 0 
1 0 0 0 -1 
1 80 0 0 1 
2 12 9 1 0 -0 1 1.6000000000000001
1 0 1 1 0 
2 68 9 1 0 -0 1 1.6000000000000001
1 0 1 1 0 
2 12 41 1 0 -0 1 1.6000000000000001
1 0 1 1 0 
2 40 25 1 0 -0 1 4
1 0 1 1 0 
2 68 41 1 0 -0 1 1.6000000000000001
1 0 1 1 0 
1 6.2831853071795862 -0 0 1 
1 0 -0 0 1 
1 6.2831853071795862 -0 0 1 
1 0 -0 0 1 
1 6.2831853071795862 -0 0 1 
1 0 -0 0 1 
1 6.2831853071795862 -0 0 1 
1 0 -0 0 1 
1 0 4.5 1 0 
2 5 0.5 1 0 -0 1 4
8 3.3999999999999999 4.5999999999999996
1 6.1578574760115208 0 0 1 
8 3.3999999999999999 4.5999999999999996
1 -3.5 8.9686269665968865 1 0 
1 0 3.5 1 0 
2 5 0.5 1 0 -0 1 4
1 0 3.5 1 0 
2 5 0.5 1 0 -0 1 4
8 3.3999999999999999 4.5999999999999996
1 0.1253278311680654 0 0 1 
8 3.3999999999999999 4.5999999999999996
1 -3.5 8.9686269665968865 1 0 
1 0 4.5 1 0 
2 5 0.5 1 0 -0 1 4
8 3.3999999999999999 4.5999999999999996
1 3.2669204847578586 0 0 1 
8 3.3999999999999999 4.5999999999999996
1 -3.5 1.0313730334031139 1 0 
1 0 4.5 1 0 
2 5 0.5 1 0 -0 1 4
8 3.3999999999999999 4.5999999999999996
1 3.0162648224217277 0 0 1 
8 3.3999999999999999 4.5999999999999996
1 -3.5 1.0313730334031139 1 0 
1 0 3.5 1 0 
2 5 0.5 1 0 -0 1 4
1 6.2831853071795862 -0 0 1 
1 0 -0 0 1 
1 1 0 0 1 
1 0 1 1 0 
1 1 0 0 1 
1 0 0 1 0 
1 0 0 0 1 
1 0 0 1 0 
1 0 0 0 1 
1 0 1 1 0 
Curves 41
1 -40 -25 0 0 0 1 
1 -40 -25 6 -0 1 0 
1 -40 25 0 0 0 1 
1 -40 -25 0 -0 1 0 
1 -40 -25 0 1 0 -0 
1 40 -25 0 0 0 1 
1 -40 -25 6 1 0 -0 
1 -40 25 6 1 0 -0 
1 40 -25 6 -0 1 0 
2 -28 -16 6 0 0 1 1 0 -0 -0 1 0 1.6000000000000001
2 28 -16 6 0 0 1 1 0 -0 -0 1 0 1.6000000000000001
2 -28 16 6 0 0 1 1 0 -0 -0 1 0 1.6000000000000001
2 0 0 6 0 0 1 1 0 -0 -0 1 0 4
2 28 16 6 0 0 1 1 0 -0 -0 1 0 1.6000000000000001
1 -40 25 0 1 0 -0 
1 40 25 0 0 0 1 
1 40 -25 0 -0 1 0 
2 -28 -16 0 0 0 1 1 0 -0 -0 1 0 1.6000000000000001
2 28 -16 0 0 0 1 1 0 -0 -0 1 0 1.6000000000000001
2 -28 16 0 0 0 1 1 0 -0 -0 1 0 1.6000000000000001
2 0 0 0 0 0 1 1 0 -0 -0 1 0 4
2 28 16 0 0 0 1 1 0 -0 -0 1 0 1.6000000000000001
1 -26.399999999999999 -16 -1 0 0 1 
1 29.600000000000001 -16 -1 0 0 1 
1 -26.399999999999999 16 -1 0 0 1 
1 4 -9.7971743931788257e-16 -1 0 0 1 
2 0 0 3.5 0 0 1 1 0 -0 -0 1 0 4
1 3.9686269665968861 -0.5 -1 0 0 1 
2 0 0 2.5 0 0 1 1 0 -0 -0 1 0 4
2 0 0 2.5 0 0 1 1 0 -0 -0 1 0 4
1 3.9686269665968861 0.5 -1 0 0 1 
2 0 0 3.5 0 0 1 1 0 -0 -0 1 0 4
1 -3.9686269665968861 -0.5 -1 0 0 1 
2 0 0 3.5 0 0 1 1 0 -0 -0 1 0 4
1 -3.9686269665968861 0.5 -1 0 0 1 
2 0 0 2.5 0 0 1 1 0 -0 -0 1 0 4
1 29.600000000000001 16 -1 0 0 1 
1 -5 0.5 3.5 1 0 -0 
1 -5 -0.5 3.5 1 0 -0 
1 -5 -0.5 2.5 1 0 -0 
1 -5 0.5 2.5 1 0 -0 
Polygon3D 0
PolygonOnTriangulations 0
Surfaces 15
1 -40 -25 0 1 0 -0 0 0 1 0 -1 0 
1 -40 -25 0 -0 1 0 0 0 1 1 0 -0 
1 -40 -25 6 0 0 1 1 0 -0 -0 1 0 
1 -40 25 0 -0 1 0 0 0 1 1 0 -0 
1 -40 -25 0 0 0 1 1 0 -0 -0 1 0 
1 40 -25 0 1 0 -0 0 0 1 0 -1 0 
2 -28 -16 -1 0 0 1 1 0 -0 -0 1 0 1.6000000000000001
2 28 -16 -1 0 0 1 1 0 -0 -0 1 0 1.6000000000000001
2 -28 16 -1 0 0 1 1 0 -0 -0 1 0 1.6000000000000001
2 0 0 -1 0 0 1 1 0 -0 -0 1 0 4
2 28 16 -1 0 0 1 1 0 -0 -0 1 0 1.6000000000000001
1 -5 -0.5 3.5 0 0 1 1 0 -0 -0 1 0 
1 -5 -0.5 2.5 -0 1 0 0 0 1 1 0 -0 
1 -5 -0.5 2.5 0 0 1 1 0 -0 -0 1 0 
1 -5 0.5 2.5 -0 1 0 0 0 1 1 0 -0 
Triangulations 0

TShapes 114
Ve
1e-07
-40 -25 6
0 0

0101101
*
Ve
1e-07
-40 -25 0
0 0

0101101
*
Ed
 1e-07 1 1 0
1  1 0 0 6
2  1 1 0 0 6
2  2 2 0 0 6
0

0101000
-114 0 +113 0 *
Ve
1e-07
-40 25 6
0 0

0101101
*
Ed
 1e-07 1 1 0
1  2 0 0 50
2  3 1 0 0 50
2  4 3 0 0 50
0

0101000
-111 0 +114 0 *
Ve
1e-07
-40 25 0
0 0

0101101
*
Ed
 1e-07 1 1 0
1  3 0 0 6
2  5 1 0 0 6
2  6 4 0 0 6
0

0101000
-111 0 +109 0 *
Ed
 1e-07 1 1 0
1  4 0 0 50
2  7 1 0 0 50
2  8 5 0 0 50
0

0101000
-109 0 +113 0 *
Wi

0101100
-112 0 -110 0 +108 0 +107 0 *
Fa
0  1e-07 1 0

0111000
+106 0 *
Ve
1e-07
40 -25 0
0 0

0101101
*
Ed
 1e-07 1 1 0
1  5 0 0 80
2  9 2 0 0 80
2  10 5 0 0 80
0

0101000
-104 0 +113 0 *
Ve
1e-07
40 -25 6
0 0

0101101
*
Ed
 1e-07 1 1 0
1  6 0 0 6
2  11 6 0 0 6
2  12 2 0 0 6
0

0101000
-102 0 +104 0 *
Ed
 1e-07 1 1 0
1  7 0 0 80
2  13 2 0 0 80
2  14 3 0 0 80
0

0101000
-102 0 +114 0 *
Wi

0101100
-103 0 -101 0 +100 0 +112 0 *
Fa
0  1e-07 2 0

0111000
+99 0 *
Ve
1e-07
40 25 6
0 0

0101101
*
Ed
 1e-07 1 1 0
1  8 0 0 80
2  15 4 0 0 80
2  16 3 0 0 80
0

0101000
-97 0 +111 0 *
Ed
 1e-07 1 1 0
1  9 0 0 50
2  17 6 0 0 50
2  18 3 0 0 50
0

0101000
-97 0 +102 0 *
Wi

0101100
-110 1 -96 1 +100 1 +95 1 *
Ve
1e-07
-26.4 -16 6
0 0

0101101
*
Ed
 1e-07 1 1 0
1  10 0 0 6.28318530717959
2  19 3 1 0 6.28318530717959
2  20 7 0 0 6.28318530717959
0

0101100
+93 0 -93 0 *
Wi

0101100
-92 0 *
Ve
1e-07
29.6 -16 6
0 0

0101101
*
Ed
 1e-07 1 1 0
1  11 0 0 6.28318530717959
2  21 3 1 0 6.28318530717959
2  22 8 0 0 6.28318530717959
0

0101100
+90 0 -90 0 *
Wi

0101100
-89 0 *
Ve
1e-07
-26.4 16 6
0 0

0101101
*
Ed
 1e-07 1 1 0
1  12 0 0 6.28318530717959
2  23 3 1 0 6.28318530717959
2  24 9 0 0 6.28318530717959
0

0101100
+87 0 -87 0 *
Wi

0101100
-86 0 *
Ve
1.00000000979717e-07
4 -9.79717439317883e-16 6
0 0

0101101
*
Ed
 1e-07 1 1 0
1  13 0 0 6.28318530717959
2  25 3 1 0 6.28318530717959
2  26 10 0 0 6.28318530717959
0

0101100
+84 0 -84 0 *
Wi

0101100
-83 0 *
Ve
1e-07
29.6 16 6
0 0

0101101
*
Ed
 1e-07 1 1 0
1  14 0 0 6.28318530717959
2  27 3 1 0 6.28318530717959
2  28 11 0 0 6.28318530717959
0

0101100
+81 0 -81 0 *
Wi

0101100
-80 0 *
Fa
0  1e-07 3 1

0101000
+94 0 +91 0 +88 0 +85 0 +82 0 +79 0 *
Ve
1e-07
40 25 0
0 0

0101101
*
Ed
 1e-07 1 1 0
1  15 0 0 80
2  29 4 0 0 80
2  30 5 0 0 80
0

0101000
-77 0 +109 0 *
Ed
 1e-07 1 1 0
1  16 0 0 6
2  31 6 0 0 6
2  32 4 0 0 6
0

0101000
-97 0 +77 0 *
Wi

0101100
-76 0 -75 0 +96 0 +108 0 *
Fa
0  1e-07 4 0

0111000
+74 0 *
Ed
 1e-07 1 1 0
1  17 0 0 50
2  33 6 0 0 50
2  34 5 0 0 50
0

0101000
-77 0 +104 0 *
Wi

0101100
-107 1 -76 1 +103 1 +72 1 *
Ve
1e-07
-26.4 -16 0
0 0

0101101
*
Ed
 1e-07 1 1 0
1  18 0 0 6.28318530717959
2  35 5 1 0 6.28318530717959
2  36 7 0 0 6.28318530717959
0

0101100
+70 0 -70 0 *
Wi

0101100
-69 0 *
Ve
1e-07
29.6 -16 0
0 0

0101101
*
Ed
 1e-07 1 1 0
1  19 0 0 6.28318530717959
2  37 5 1 0 6.28318530717959
2  38 8 0 0 6.28318530717959
0

0101100
+67 0 -67 0 *
Wi

0101100
-66 0 *
Ve
1e-07
-26.4 16 0
0 0

0101101
*
Ed
 1e-07 1 1 0
1  20 0 0 6.28318530717959
2  39 5 1 0 6.28318530717959
2  40 9 0 0 6.28318530717959
0

0101100
+64 0 -64 0 *
Wi

0101100
-63 0 *
Ve
1.00000000979717e-07
4 -9.79717439317883e-16 0
0 0

0101101
*
Ed
 1e-07 1 1 0
1  21 0 0 6.28318530717959
2  41 5 1 0 6.28318530717959
2  42 10 0 0 6.28318530717959
0

0101100
+61 0 -61 0 *
Wi

0101100
-60 0 *
Ve
1e-07
29.6 16 0
0 0

0101101
*
Ed
 1e-07 1 1 0
1  22 0 0 6.28318530717959
2  43 5 1 0 6.28318530717959
2  44 11 0 0 6.28318530717959
0

0101100
+58 0 -58 0 *
Wi

0101100
-57 0 *
Fa
0  1e-07 5 1

0101000
+71 0 +68 0 +65 0 +62 0 +59 0 +56 0 *
Wi

0101100
-101 0 -95 0 +75 0 +72 0 *
Fa
0  1e-07 6 0

0111000
+54 0 *
Ed
 1e-07 1 1 0
1  23 0 1 7
3  45 46CN 7 0 1 7
0

0101000
+70 0 -93 0 *
Wi

0101100
-92 0 +52 0 +69 0 -52 0 *
Fa
0  1e-07 7 0

0101000
+51 0 *
Ed
 1e-07 1 1 0
1  24 0 1 7
3  47 48CN 8 0 1 7
0

0101000
+67 0 -90 0 *
Wi

0101100
-89 0 +49 0 +66 0 -49 0 *
Fa
0  1e-07 8 0

0101000
+48 0 *
Ed
 1e-07 1 1 0
1  25 0 1 7
3  49 50CN 9 0 1 7
0

0101000
+64 0 -87 0 *
Wi

0101100
-86 0 +46 0 +63 0 -46 0 *
Fa
0  1e-07 9 0

0101000
+45 0 *
Ve
1.00000000979717e-07
4 -9.79717439317883e-16 3.5
0 0

0101101
*
Ed
 1e-07 1 1 0
1  26 0 4.5 7
3  51 52CN 10 0 4.5 7
0

0101000
+43 0 -84 0 *
Ve
1.00000001510067e-07
3.96862696659689 -0.5 3.5
0 0

0101101
*
Ed
 1e-07 1 1 0
1  27 0 6.15785747601152 6.28318530717959
2  53 10 0 6.15785747601152 6.28318530717959
2  54 12 0 6.15785747601152 6.28318530717959
0

0101000
+41 0 -43 0 *
Ve
1.00000001510067e-07
3.96862696659689 -0.5 2.5
0 0

0101101
*
Ed
 1e-07 1 1 0
1  28 0 3.5 4.5
2  55 10 0 3.5 4.5
2  56 13 0 3.5 4.5
0

0101000
+39 0 -41 0 *
Ve
1.00000000979717e-07
4 -9.79717439317883e-16 2.5
0 0

0101101
*
Ed
 1e-07 1 1 0
1  29 0 6.15785747601152 6.28318530717959
2  57 10 0 6.15785747601152 6.28318530717959
2  58 14 0 6.15785747601152 6.28318530717959
0

0101000
+39 0 -37 0 *
Ed
 1e-07 1 1 0
1  26 0 1 3.5
3  51 52CN 10 0 1 3.5
0

0101000
+61 0 -37 0 *
Ve
1.00000000457757e-07
3.96862696659689 0.5 2.5
0 0

0101101
*
Ed
 1e-07 1 1 0
1  30 0 0 0.125327831168065
2  59 10 0 0 0.125327831168065
2  60 14 0 0 0.125327831168065
0

0101000
+37 0 -34 0 *
Ve
1.00000000457757e-07
3.96862696659689 0.5 3.5
0 0

0101101
*
Ed
 1e-07 1 1 0
1  31 0 3.5 4.5
2  61 10 0 3.5 4.5
2  62 15 0 3.5 4.5
0

0101000
+34 0 -32 0 *
Ed
 1e-07 1 1 0
1  32 0 0 0.125327831168065
2  63 10 0 0 0.125327831168065
2  64 12 0 0 0.125327831168065
0

0101000
+43 0 -32 0 *
Wi

0101100
+42 0 +40 0 +38 0 -36 0 +35 0 +60 0 -35 0 -33 0 -31 0 +30 0 
-42 0 -83 0 *
Ve
1.00000000523691e-07
-3.96862696659689 -0.5 2.5
0 0

0101101
*
Ve
1.00000000523691e-07
-3.96862696659689 -0.5 3.5
0 0

0101101
*
Ed
 1e-07 1 1 0
1  33 0 3.5 4.5
2  65 10 0 3.5 4.5
2  66 13 0 3.5 4.5
0

0101000
+28 0 -27 0 *
Ve
1.00000000666134e-07
-3.96862696659689 0.5 3.5
0 0

0101101
*
Ed
 1e-07 1 1 0
1  34 0 3.01626482242173 3.26692048475786
2  67 10 0 3.01626482242173 3.26692048475786
2  68 12 0 3.01626482242173 3.26692048475786
0

0101000
+25 0 -27 0 *
Ve
1.00000000666134e-07
-3.96862696659689 0.5 2.5
0 0

0101101
*
Ed
 1e-07 1 1 0
1  35 0 3.5 4.5
2  69 10 0 3.5 4.5
2  70 15 0 3.5 4.5
0

0101000
+23 0 -25 0 *
Ed
 1e-07 1 1 0
1  36 0 3.01626482242173 3.26692048475786
2  71 10 0 3.01626482242173 3.26692048475786
2  72 14 0 3.01626482242173 3.26692048475786
0

0101000
+23 0 -28 0 *
Wi

0101100
-26 0 +24 0 +22 0 -21 0 *
Fa
0  1e-07 10 0

0101000
+29 0 +20 0 *
Ed
 1e-07 1 1 0
1  37 0 1 7
3  73 74CN 11 0 1 7
0

0101000
+58 0 -81 0 *
Wi

0101100
-80 0 +18 0 +57 0 -18 0 *
Fa
0  1e-07 11 0

0101000
+17 0 *
Ed
 1e-07 1 1 0
1  38 0 1.03137303340311 8.96862696659689
2  75 15 0 1.03137303340311 8.96862696659689
2  76 12 0 1.03137303340311 8.96862696659689
0

0101000
+25 0 -32 0 *
Ed
 1e-07 1 1 0
1  39 0 1.03137303340311 8.96862696659689
2  77 13 0 1.03137303340311 8.96862696659689
2  78 12 0 1.03137303340311 8.96862696659689
0

0101000
+27 0 -41 0 *
Wi

0101100
-15 0 +30 0 +40 0 +14 0 +24 0 *
Fa
0  1e-07 12 0

0101000
+13 0 *
Ed
 1e-07 1 1 0
1  40 0 1.03137303340311 8.96862696659689
2  79 13 0 1.03137303340311 8.96862696659689
2  80 14 0 1.03137303340311 8.96862696659689
0

0101000
+28 0 -39 0 *
Wi

0101100
-11 0 -38 0 +14 0 +26 0 *
Fa
0  1e-07 13 0

0101000
+10 0 *
Ed
 1e-07 1 1 0
1  41 0 1.03137303340311 8.96862696659689
2  81 15 0 1.03137303340311 8.96862696659689
2  82 14 0 1.03137303340311 8.96862696659689
0

0101000
+23 0 -34 0 *
Wi

0101100
-8 0 +33 0 +36 0 +11 0 +21 0 *
Fa
0  1e-07 14 0

0101000
+7 0 *
Wi

0101100
-8 0 -31 0 +15 0 +22 0 *
Fa
0  1e-07 15 0

0101000
+5 0 *
Sh

0101100
-105 1 -98 1 +78 0 +73 1 -55 0 +53 1 -50 0 -47 0 -44 0 -19 0 
-16 0 +12 0 -9 0 -6 0 +4 0 *
So

0100000
+3 0 *
Co

1100000
+2 0 *

+1 0 