DBRep_DrawableShape

CASCADE Topology V3, (c) Open Cascade
Locations 3
1
              1              -0               0              -0 
              0               1               0               0 
             -0               0               1              -0 
1
              1              -0               0              -0 
              0               1               0               0 
             -0               0               1              -0 
2  2 -1 0
Curve2ds 74
1 0 0 1 0 
1 0 0 1 0 
1 6 0 0 -1 
1 0 0 0 1 
1 0 -50 1 0 
1 0 0 1 0 
1 0 0 0 -1 
1 0 0 0 1 
1 0 0 0 1 
1 0 0 1 0 
1 0 0 1 0 
1 0 80 1 0 
1 6 0 0 1 
1 0 0 1 0 
1 6 0 0 1 
1 0 50 1 0 
1 6 0 0 -1 
1 80 0 0 1 
2 12 9 1 0 -0 1 1.6000000000000001
1 0 7 1 0 
2 68 9 1 0 -0 1 1.6000000000000001
1 0 7 1 0 
2 12 41 1 0 -0 1 1.6000000000000001
1 0 7 1 0 
2 40 25 1 0 -0 1 4
1 0 7 1 0 
2 68 41 1 0 -0 1 1.6000000000000001
1 0 7 1 0 
1 0 0 0 1 
1 0 50 1 0 
1 0 -50 1 0 
1 0 80 1 0 
1 0 0 0 -1 
1 80 0 0 1 
2 12 9 1 0 -0 1 1.6000000000000001
1 0 1 1 0 
2 68 9 1 0 -0 1 1.6000000000000001
1 0 1 1 0 
2 12 41 1 0 -0 1 1.6000000000000001
1 0 1 1 0 
2 40 25 1 0 -0 1 4
1 0 1 1 0 
2 68 41 1 0 -0 1 1.6000000000000001
1 0 1 1 0 
1 6.2831853071795862 -0 0 1 
1 0 -0 0 1 
1 6.2831853071795862 -0 0 1 
1 0 -0 0 1 
1 6.2831853071795862 -0 0 1 
1 0 -0 0 1 
1 6.2831853071795862 -0 0 1 
1 0 -0 0 1 
1 6.2831853071795862 -0 0 1 
1 0 -0 0 1 
1 0 7 1 0 
1 0 7 1 0 
1 0 7 1 0 
1 0 7 1 0 
1 0 7 1 0 
1 0 1 1 0 
1 0 1 1 0 
1 0 1 1 0 
1 0 1 1 0 
1 0 1 1 0 
1 6.2831853071795862 -0 0 1 
1 0 -0 0 1 
1 6.2831853071795862 -0 0 1 
1 0 -0 0 1 
1 6.2831853071795862 -0 0 1 
1 0 -0 0 1 
1 6.2831853071795862 -0 0 1 
1 0 -0 0 1 
1 6.2831853071795862 -0 0 1 
1 0 -0 0 1 
Curves 54
1 -40 -25 0 0 0 1 
1 -40 -25 6 -0 1 0 
1 -40 25 0 0 0 1 
1 -40 -25 0 -0 1 0 
1 -40 -25 0 1 0 -0 
1 40 -25 0 0 0 1 
1 -40 -25 6 1 0 -0 
1 -40 25 6 1 0 -0 
1 40 -25 6 -0 1 0 
2 -28 -16 6 0 0 1 1 0 -0 -0 1 0 1.6000000000000001
2 28 -16 6 0 0 1 1 0 -0 -0 1 0 1.6000000000000001
2 -28 16 6 0 0 1 1 0 -0 -0 1 0 1.6000000000000001
2 0 0 6 0 0 1 1 0 -0 -0 1 0 4
2 28 16 6 0 0 1 1 0 -0 -0 1 0 1.6000000000000001
1 -40 25 0 1 0 -0 
1 40 25 0 0 0 1 
1 40 -25 0 -0 1 0 
2 -28 -16 0 0 0 1 1 0 -0 -0 1 0 1.6000000000000001
2 28 -16 0 0 0 1 1 0 -0 -0 1 0 1.6000000000000001
2 -28 16 0 0 0 1 1 0 -0 -0 1 0 1.6000000000000001
2 0 0 0 0 0 1 1 0 -0 -0 1 0 4
2 28 16 0 0 0 1 1 0 -0 -0 1 0 1.6000000000000001
1 -26.399999999999999 -16 -1 0 0 1 
1 29.600000000000001 -16 -1 0 0 1 
1 -26.399999999999999 16 -1 0 0 1 
1 4 -9.7971743931788257e-16 -1 0 0 1 
1 29.600000000000001 16 -1 0 0 1 
1 -40 -25 14 0 0 1 
1 -40 -25 20 0 1 0 
1 -40 25 14 0 0 1 
1 -40 -25 14 0 1 0 
1 -40 -25 14 1 0 0 
1 40 -25 14 0 0 1 
1 -40 -25 20 1 0 0 
1 -40 25 20 1 0 0 
1 40 -25 20 0 1 0 
2 -28 -16 20 0 0 1 1 0 -0 -0 1 0 1.6000000000000001
2 28 -16 20 0 0 1 1 0 -0 -0 1 0 1.6000000000000001
2 -28 16 20 0 0 1 1 0 -0 -0 1 0 1.6000000000000001
2 0 0 20 0 0 1 1 0 -0 -0 1 0 4
2 28 16 20 0 0 1 1 0 -0 -0 1 0 1.6000000000000001
1 -40 25 14 1 0 0 
1 40 25 14 0 0 1 
1 40 -25 14 0 1 0 
2 -28 -16 14 0 0 1 1 0 -0 -0 1 0 1.6000000000000001
2 28 -16 14 0 0 1 1 0 -0 -0 1 0 1.6000000000000001
2 -28 16 14 0 0 1 1 0 -0 -0 1 0 1.6000000000000001
2 0 0 14 0 0 1 1 0 -0 -0 1 0 4
2 28 16 14 0 0 1 1 0 -0 -0 1 0 1.6000000000000001
1 -26.399999999999999 -16 13 0 0 1 
1 29.600000000000001 -16 13 0 0 1 
1 -26.399999999999999 16 13 0 0 1 
1 4 -9.7971743931788257e-16 13 0 0 1 
1 29.600000000000001 16 13 0 0 1 
Polygon3D 0
PolygonOnTriangulations 0
Surfaces 22
1 -40 -25 0 1 0 -0 0 0 1 0 -1 0 
1 -40 -25 0 -0 1 0 0 0 1 1 0 -0 
1 -40 -25 6 0 0 1 1 0 -0 -0 1 0 
1 -40 25 0 -0 1 0 0 0 1 1 0 -0 
1 -40 -25 0 0 0 1 1 0 -0 -0 1 0 
1 40 -25 0 1 0 -0 0 0 1 0 -1 0 
2 -28 -16 -1 0 0 1 1 0 -0 -0 1 0 1.6000000000000001
2 28 -16 -1 0 0 1 1 0 -0 -0 1 0 1.6000000000000001
2 -28 16 -1 0 0 1 1 0 -0 -0 1 0 1.6000000000000001
2 0 0 -1 0 0 1 1 0 -0 -0 1 0 4
2 28 16 -1 0 0 1 1 0 -0 -0 1 0 1.6000000000000001
1 -40 -25 14 1 0 0 0 0 1 0 -1 0 
1 -40 -25 14 0 1 0 0 0 1 1 0 0 
1 -40 -25 20 0 0 1 1 0 0 0 1 0 
2 -28 -16 13 0 0 1 1 0 -0 -0 1 0 1.6000000000000001
2 28 -16 13 0 0 1 1 0 -0 -0 1 0 1.6000000000000001
2 -28 16 13 0 0 1 1 0 -0 -0 1 0 1.6000000000000001
2 0 0 13 0 0 1 1 0 -0 -0 1 0 4
2 28 16 13 0 0 1 1 0 -0 -0 1 0 1.6000000000000001
1 -40 25 14 0 1 0 0 0 1 1 0 0 
1 -40 -25 14 0 0 1 1 0 0 0 1 0 
1 40 -25 14 1 0 0 0 0 1 0 -1 0 
Triangulations 0

TShapes 161
Ve
1e-07
-40 -25 6
0 0

0101101
*
Ve
1e-07
-40 -25 0
0 0

0101101
*
Ed
 1e-07 1 1 0
1  1 0 0 6
2  1 1 0 0 6
2  2 2 0 0 6
0

0101000
-161 0 +160 0 *
Ve
1e-07
-40 25 6
0 0

0101101
*
Ed
 1e-07 1 1 0
1  2 0 0 50
2  3 1 0 0 50
2  4 3 0 0 50
0

0101000
-158 0 +161 0 *
Ve
1e-07
-40 25 0
0 0

0101101
*
Ed
 1e-07 1 1 0
1  3 0 0 6
2  5 1 0 0 6
2  6 4 0 0 6
0

0101000
-158 0 +156 0 *
Ed
 1e-07 1 1 0
1  4 0 0 50
2  7 1 0 0 50
2  8 5 0 0 50
0

0101000
-156 0 +160 0 *
Wi

0101100
-159 0 -157 0 +155 0 +154 0 *
Fa
0  1e-07 1 0

0111000
+153 0 *
Ve
1e-07
40 -25 0
0 0

0101101
*
Ed
 1e-07 1 1 0
1  5 0 0 80
2  9 2 0 0 80
2  10 5 0 0 80
0

0101000
-151 0 +160 0 *
Ve
1e-07
40 -25 6
0 0

0101101
*
Ed
 1e-07 1 1 0
1  6 0 0 6
2  11 6 0 0 6
2  12 2 0 0 6
0

0101000
-149 0 +151 0 *
Ed
 1e-07 1 1 0
1  7 0 0 80
2  13 2 0 0 80
2  14 3 0 0 80
0

0101000
-149 0 +161 0 *
Wi

0101100
-150 0 -148 0 +147 0 +159 0 *
Fa
0  1e-07 2 0

0111000
+146 0 *
Ve
1e-07
40 25 6
0 0

0101101
*
Ed
 1e-07 1 1 0
1  8 0 0 80
2  15 4 0 0 80
2  16 3 0 0 80
0

0101000
-144 0 +158 0 *
Ed
 1e-07 1 1 0
1  9 0 0 50
2  17 6 0 0 50
2  18 3 0 0 50
0

0101000
-144 0 +149 0 *
Wi

0101100
-157 1 -143 1 +147 1 +142 1 *
Ve
1e-07
-26.4 -16 6
0 0

0101101
*
Ed
 1e-07 1 1 0
1  10 0 0 6.28318530717959
2  19 3 1 0 6.28318530717959
2  20 7 0 0 6.28318530717959
0

0101100
+140 0 -140 0 *
Wi

0101100
-139 0 *
Ve
1e-07
29.6 -16 6
0 0

0101101
*
Ed
 1e-07 1 1 0
1  11 0 0 6.28318530717959
2  21 3 1 0 6.28318530717959
2  22 8 0 0 6.28318530717959
0

0101100
+137 0 -137 0 *
Wi

0101100
-136 0 *
Ve
1e-07
-26.4 16 6
0 0

0101101
*
Ed
 1e-07 1 1 0
1  12 0 0 6.28318530717959
2  23 3 1 0 6.28318530717959
2  24 9 0 0 6.28318530717959
0

0101100
+134 0 -134 0 *
Wi

0101100
-133 0 *
Ve
1.00000000979717e-07
4 -9.79717439317883e-16 6
0 0

0101101
*
Ed
 1e-07 1 1 0
1  13 0 0 6.28318530717959
2  25 3 1 0 6.28318530717959
2  26 10 0 0 6.28318530717959
0

0101100
+131 0 -131 0 *
Wi

0101100
-130 0 *
Ve
1e-07
29.6 16 6
0 0

0101101
*
Ed
 1e-07 1 1 0
1  14 0 0 6.28318530717959
2  27 3 1 0 6.28318530717959
2  28 11 0 0 6.28318530717959
0

0101100
+128 0 -128 0 *
Wi

0101100
-127 0 *
Fa
0  1e-07 3 1

0101000
+141 0 +138 0 +135 0 +132 0 +129 0 +126 0 *
Ve
1e-07
40 25 0
0 0

0101101
*
Ed
 1e-07 1 1 0
1  15 0 0 80
2  29 4 0 0 80
2  30 5 0 0 80
0

0101000
-124 0 +156 0 *
Ed
 1e-07 1 1 0
1  16 0 0 6
2  31 6 0 0 6
2  32 4 0 0 6
0

0101000
-144 0 +124 0 *
Wi

0101100
-123 0 -122 0 +143 0 +155 0 *
Fa
0  1e-07 4 0

0111000
+121 0 *
Ed
 1e-07 1 1 0
1  17 0 0 50
2  33 6 0 0 50
2  34 5 0 0 50
0

0101000
-124 0 +151 0 *
Wi

0101100
-154 1 -123 1 +150 1 +119 1 *
Ve
1e-07
-26.4 -16 0
0 0

0101101
*
Ed
 1e-07 1 1 0
1  18 0 0 6.28318530717959
2  35 5 1 0 6.28318530717959
2  36 7 0 0 6.28318530717959
0

0101100
+117 0 -117 0 *
Wi

0101100
-116 0 *
Ve
1e-07
29.6 -16 0
0 0

0101101
*
Ed
 1e-07 1 1 0
1  19 0 0 6.28318530717959
2  37 5 1 0 6.28318530717959
2  38 8 0 0 6.28318530717959
0

0101100
+114 0 -114 0 *
Wi

0101100
-113 0 *
Ve
1e-07
-26.4 16 0
0 0

0101101
*
Ed
 1e-07 1 1 0
1  20 0 0 6.28318530717959
2  39 5 1 0 6.28318530717959
2  40 9 0 0 6.28318530717959
0

0101100
+111 0 -111 0 *
Wi

0101100
-110 0 *
Ve
1.00000000979717e-07
4 -9.79717439317883e-16 0
0 0

0101101
*
Ed
 1e-07 1 1 0
1  21 0 0 6.28318530717959
2  41 5 1 0 6.28318530717959
2  42 10 0 0 6.28318530717959
0

0101100
+108 0 -108 0 *
Wi

0101100
-107 0 *
Ve
1e-07
29.6 16 0
0 0

0101101
*
Ed
 1e-07 1 1 0
1  22 0 0 6.28318530717959
2  43 5 1 0 6.28318530717959
2  44 11 0 0 6.28318530717959
0

0101100
+105 0 -105 0 *
Wi

0101100
-104 0 *
Fa
0  1e-07 5 1

0101000
+118 0 +115 0 +112 0 +109 0 +106 0 +103 0 *
Wi

0101100
-148 0 -142 0 +122 0 +119 0 *
Fa
0  1e-07 6 0

0111000
+101 0 *
Ed
 1e-07 1 1 0
1  23 0 1 7
3  45 46CN 7 0 1 7
0

0101000
+117 0 -140 0 *
Wi

0101100
-139 0 +99 0 +116 0 -99 0 *
Fa
0  1e-07 7 0

0101000
+98 0 *
Ed
 1e-07 1 1 0
1  24 0 1 7
3  47 48CN 8 0 1 7
0

0101000
+114 0 -137 0 *
Wi

0101100
-136 0 +96 0 +113 0 -96 0 *
Fa
0  1e-07 8 0

0101000
+95 0 *
Ed
 1e-07 1 1 0
1  25 0 1 7
3  49 50CN 9 0 1 7
0

0101000
+111 0 -134 0 *
Wi

0101100
-133 0 +93 0 +110 0 -93 0 *
Fa
0  1e-07 9 0

0101000
+92 0 *
Ed
 1e-07 1 1 0
1  26 0 1 7
3  51 52CN 10 0 1 7
0

0101000
+108 0 -131 0 *
Wi

0101100
-130 0 +90 0 +107 0 -90 0 *
Fa
0  1e-07 10 0

0101000
+89 0 *
Ed
 1e-07 1 1 0
1  27 0 1 7
3  53 54CN 11 0 1 7
0

0101000
+105 0 -128 0 *
Wi

0101100
-127 0 +87 0 +104 0 -87 0 *
Fa
0  1e-07 11 0

0101000
+86 0 *
Sh

0101100
-152 1 -145 1 +125 0 +120 1 -102 0 +100 1 -97 0 -94 0 -91 0 -88 0 
-85 0 *
So

0100000
+84 0 *
Co

0100000
+83 0 *
Ve
1e-07
-40 -25 20
0 0

0101101
*
Ve
1e-07
-40 -25 14
0 0

0101101
*
Ed
 1e-07 1 1 0
1  28 0 0 6
0

0101000
-81 3 +80 3 *
Ve
1e-07
-40 25 20
0 0

0101101
*
Ed
 1e-07 1 1 0
1  29 0 0 50
0

0101000
-78 3 +81 3 *
Ve
1e-07
-40 25 14
0 0

0101101
*
Ed
 1e-07 1 1 0
1  30 0 0 6
0

0101000
-78 3 +76 3 *
Ed
 1e-07 1 1 0
1  31 0 0 50
0

0101000
-76 3 +80 3 *
Wi

0101100
-79 0 -77 0 +75 0 +74 0 *
Fa
0  1e-07 12 0

0111000
+73 0 *
Ve
1e-07
40 -25 14
0 0

0101101
*
Ed
 1e-07 1 1 0
1  32 0 0 80
0

0101000
-71 3 +80 3 *
Ve
1e-07
40 -25 20
0 0

0101101
*
Ed
 1e-07 1 1 0
1  33 0 0 6
0

0101000
-69 3 +71 3 *
Ed
 1e-07 1 1 0
1  34 0 0 80
0

0101000
-69 3 +81 3 *
Wi

0101100
-70 0 -68 0 +67 0 +79 0 *
Fa
0  1e-07 13 0

0111000
+66 0 *
Ve
1e-07
40 25 20
0 0

0101101
*
Ed
 1e-07 1 1 0
1  35 0 0 80
0

0101000
-64 3 +78 3 *
Ed
 1e-07 1 1 0
1  36 0 0 50
0

0101000
-64 3 +69 3 *
Wi

0101100
-77 2 -63 2 +67 2 +62 2 *
Ve
1e-07
-26.4 -16 20
0 0

0101101
*
Ed
 1e-07 1 1 0
1  37 0 0 6.28318530717959
2  55 15 0 0 6.28318530717959
0

0101100
+60 0 -60 0 *
Wi

0101100
-59 0 *
Ve
1e-07
29.6 -16 20
0 0

0101101
*
Ed
 1e-07 1 1 0
1  38 0 0 6.28318530717959
2  56 16 0 0 6.28318530717959
0

0101100
+57 0 -57 0 *
Wi

0101100
-56 0 *
Ve
1e-07
-26.4 16 20
0 0

0101101
*
Ed
 1e-07 1 1 0
1  39 0 0 6.28318530717959
2  57 17 0 0 6.28318530717959
0

0101100
+54 0 -54 0 *
Wi

0101100
-53 0 *
Ve
1.00000000979717e-07
4 -9.79717439317883e-16 20
0 0

0101101
*
Ed
 1e-07 1 1 0
1  40 0 0 6.28318530717959
2  58 18 0 0 6.28318530717959
0

0101100
+51 0 -51 0 *
Wi

0101100
-50 0 *
Ve
1e-07
29.6 16 20
0 0

0101101
*
Ed
 1e-07 1 1 0
1  41 0 0 6.28318530717959
2  59 19 0 0 6.28318530717959
0

0101100
+48 0 -48 0 *
Wi

0101100
-47 0 *
Fa
0  1e-07 14 2

0101000
+61 0 +58 0 +55 0 +52 0 +49 0 +46 0 *
Ve
1e-07
40 25 14
0 0

0101101
*
Ed
 1e-07 1 1 0
1  42 0 0 80
0

0101000
-44 3 +76 3 *
Ed
 1e-07 1 1 0
1  43 0 0 6
0

0101000
-64 3 +44 3 *
Wi

0101100
-43 0 -42 0 +63 0 +75 0 *
Fa
0  1e-07 20 0

0111000
+41 0 *
Ed
 1e-07 1 1 0
1  44 0 0 50
0

0101000
-44 3 +71 3 *
Wi

0101100
-74 2 -43 2 +70 2 +39 2 *
Ve
1e-07
-26.4 -16 14
0 0

0101101
*
Ed
 1e-07 1 1 0
1  45 0 0 6.28318530717959
2  60 15 0 0 6.28318530717959
0

0101100
+37 0 -37 0 *
Wi

0101100
-36 0 *
Ve
1e-07
29.6 -16 14
0 0

0101101
*
Ed
 1e-07 1 1 0
1  46 0 0 6.28318530717959
2  61 16 0 0 6.28318530717959
0

0101100
+34 0 -34 0 *
Wi

0101100
-33 0 *
Ve
1e-07
-26.4 16 14
0 0

0101101
*
Ed
 1e-07 1 1 0
1  47 0 0 6.28318530717959
2  62 17 0 0 6.28318530717959
0

0101100
+31 0 -31 0 *
Wi

0101100
-30 0 *
Ve
1.00000000979717e-07
4 -9.79717439317883e-16 14
0 0

0101101
*
Ed
 1e-07 1 1 0
1  48 0 0 6.28318530717959
2  63 18 0 0 6.28318530717959
0

0101100
+28 0 -28 0 *
Wi

0101100
-27 0 *
Ve
1e-07
29.6 16 14
0 0

0101101
*
Ed
 1e-07 1 1 0
1  49 0 0 6.28318530717959
2  64 19 0 0 6.28318530717959
0

0101100
+25 0 -25 0 *
Wi

0101100
-24 0 *
Fa
0  1e-07 21 2

0101000
+38 0 +35 0 +32 0 +29 0 +26 0 +23 0 *
Wi

0101100
-68 0 -62 0 +42 0 +39 0 *
Fa
0  1e-07 22 0

0111000
+21 0 *
Ed
 1e-07 1 1 0
1  50 0 1 7
3  65 66CN 15 0 1 7
0

0101000
+37 0 -60 0 *
Wi

0101100
-59 0 +19 0 +36 0 -19 0 *
Fa
0  1e-07 15 0

0101000
+18 0 *
Ed
 1e-07 1 1 0
1  51 0 1 7
3  67 68CN 16 0 1 7
0

0101000
+34 0 -57 0 *
Wi

0101100
-56 0 +16 0 +33 0 -16 0 *
Fa
0  1e-07 16 0

0101000
+15 0 *
Ed
 1e-07 1 1 0
1  52 0 1 7
3  69 70CN 17 0 1 7
0

0101000
+31 0 -54 0 *
Wi

0101100
-53 0 +13 0 +30 0 -13 0 *
Fa
0  1e-07 17 0

0101000
+12 0 *
Ed
 1e-07 1 1 0
1  53 0 1 7
3  71 72CN 18 0 1 7
0

0101000
+28 0 -51 0 *
Wi

0101100
-50 0 +10 0 +27 0 -10 0 *
Fa
0  1e-07 18 0

0101000
+9 0 *
Ed
 1e-07 1 1 0
1  54 0 1 7
3  73 74CN 19 0 1 7
0

0101000
+25 0 -48 0 *
Wi

0101100
-47 0 +7 0 +24 0 -7 0 *
Fa
0  1e-07 19 0

0101000
+6 0 *
Sh

0101100
-72 2 -65 2 +45 0 +40 2 -22 0 +20 2 -17 0 -14 0 -11 0 -8 0 
-5 0 *
So

0100000
+4 0 *
Co

0100000
+3 0 *
Co

1100000
+82 0 +2 0 *

+1 0 